<svg xmlns="http://www.w3.org/2000/svg" viewBox="0 0 122.75 122.75">
	<defs>
		<!-- <style>
			.cls-1{fill:#bed200;}
		</style> -->
	</defs>
	<g id="Capa_2" data-name="Capa 2">
		<g id="Capa_1-2" data-name="Capa 1">
			<circle class="cls-1" cx="61.37" cy="61.37" r="58.7" />
			<path class="cls-2" d="M61.37,122.75a61.38,61.38,0,1,1,61.38-61.38A61.45,61.45,0,0,1,61.37,122.75Zm0-117.4a56,56,0,1,0,56,56A56.08,56.08,0,0,0,61.37,5.35Z" />
			<g id="vEBDwz.tif">
				<path class="cls-2" d="M27.59,79.74a19,19,0,0,1,2.5-4.89Q43,53.4,56,32a6.12,6.12,0,0,1,5.42-3.28,5.66,5.66,0,0,1,5,2.62c1.32,2,2.53,4.12,3.77,6.19L94.07,77.15c1.78,3,1.35,6.15-1.11,8.21a5.87,5.87,0,0,1-3.56,1.37l-.66,0q-27.34,0-54.7,0a6,6,0,0,1-5.94-3.69,15,15,0,0,1-.51-1.47Zm33.78,2.62H88.49a5.22,5.22,0,0,0,.79,0,1.64,1.64,0,0,0,1.29-2.41,6.37,6.37,0,0,0-.35-.63L76.5,56.54Q69.81,45.46,63.11,34.36a3.68,3.68,0,0,0-.66-.89c-.87-.78-2-.46-2.71.75L32.47,79.43a5.29,5.29,0,0,0-.29.52,1.64,1.64,0,0,0,1.21,2.36,4,4,0,0,0,.85,0Z" />
				<path class="cls-2" d="M64,57.48l-.27,8.17a1.69,1.69,0,0,1-1.28,1.84,3.2,3.2,0,0,1-2.32,0A1.58,1.58,0,0,1,59,65.94c-.18-5.45-.38-10.89-.56-16.34A2.38,2.38,0,0,1,60.14,47a2.79,2.79,0,0,1,4.16,2.63c0,2.64-.13,5.27-.2,7.91Z" />
				<path class="cls-2" d="M58.32,73.71a3.12,3.12,0,0,1,3.1-3.17,3.15,3.15,0,0,1,.06,6.29A3.15,3.15,0,0,1,58.32,73.71Z" />
			</g>
		</g>
	</g>
</svg>
