<svg viewBox="0 0 122.4 122.4" xmlns="http://www.w3.org/2000/svg">
	<circle cx="61.2" cy="61.2" fill="#fff" r="58.7" />
	<g fill="#ab0c28">
		<path d="m61.2 122.4a61.2 61.2 0 1 1 61.2-61.2 61.27 61.27 0 0 1 -61.2 61.2zm0-117.4a56.2 56.2 0 1 0 56.2 56.2 56.26 56.26 0 0 0 -56.2-56.2z" />
		<path d="m27.42 79.57a18.38 18.38 0 0 1 2.5-4.89q12.93-21.45 25.86-42.9a6.09 6.09 0 0 1 5.42-3.28 5.65 5.65 0 0 1 5 2.62c1.33 2 2.53 4.11 3.78 6.18l23.92 39.7c1.78 3 1.35 6.14-1.11 8.2a5.82 5.82 0 0 1 -3.56 1.38h-55.37a6.05 6.05 0 0 1 -5.94-3.69 12.25 12.25 0 0 1 -.5-1.48zm33.77 2.62h27.13a5.22 5.22 0 0 0 .79 0 1.65 1.65 0 0 0 1.29-2.42 6.74 6.74 0 0 0 -.36-.63q-6.85-11.4-13.72-22.77-6.69-11.1-13.38-22.18a3.94 3.94 0 0 0 -.66-.9c-.87-.78-2-.46-2.72.75q-13.63 22.61-27.26 45.21a3.81 3.81 0 0 0 -.29.52 1.64 1.64 0 0 0 1.21 2.37 4.79 4.79 0 0 0 .85 0z" />
		<path d="m63.86 57.31c-.09 2.72-.18 5.45-.26 8.17a1.69 1.69 0 0 1 -1.28 1.84 3.2 3.2 0 0 1 -2.32 0 1.58 1.58 0 0 1 -1.17-1.57q-.28-8.17-.56-16.34a2.37 2.37 0 0 1 1.73-2.63c1.39-.48 3.07-.14 3.71.89a3.47 3.47 0 0 1 .45 1.74c0 2.63-.13 5.27-.2 7.9z" />
		<path d="m58.15 73.54a3.12 3.12 0 0 1 3.1-3.17 3.14 3.14 0 0 1 .06 6.28 3.14 3.14 0 0 1 -3.16-3.11z" />
	</g>
</svg>
