<svg xmlns="http://www.w3.org/2000/svg" width="80" height="80" viewBox="0 0 80 80">
  <g id="Group_1857" data-name="Group 1857" transform="translate(-3980 -4184)">
    <g id="Group_1849" data-name="Group 1849" transform="translate(104)">
      <g id="Path_52872" data-name="Path 52872" transform="translate(3876 4184)" fill="#36c">
        <path d="M 40 78.5 C 34.80187606811523 78.5 29.76003265380859 77.48227691650391 25.01452255249023 75.47509765625 C 20.43014526367188 73.53606414794922 16.31264495849609 70.75986480712891 12.77638912200928 67.22360992431641 C 9.240133285522461 63.68735504150391 6.46393346786499 59.56985473632812 4.524899959564209 54.98547744750977 C 2.517722129821777 50.23996734619141 1.5 45.19812393188477 1.5 40 C 1.5 34.80187606811523 2.517722129821777 29.76003265380859 4.524899959564209 25.01452255249023 C 6.46393346786499 20.43014526367188 9.240133285522461 16.31264495849609 12.77638912200928 12.77638912200928 C 16.31264495849609 9.240133285522461 20.43014526367188 6.46393346786499 25.01452255249023 4.524899959564209 C 29.76003265380859 2.517722129821777 34.80187606811523 1.5 40 1.5 C 45.19812393188477 1.5 50.23996734619141 2.517722129821777 54.98547744750977 4.524899959564209 C 59.56985473632812 6.46393346786499 63.68735504150391 9.240133285522461 67.22360992431641 12.77638912200928 C 70.75986480712891 16.31264495849609 73.53606414794922 20.43014526367188 75.47509765625 25.01452255249023 C 77.48227691650391 29.76003265380859 78.5 34.80187606811523 78.5 40 C 78.5 45.19812393188477 77.48227691650391 50.23996734619141 75.47509765625 54.98547744750977 C 73.53606414794922 59.56985473632812 70.75986480712891 63.68735504150391 67.22360992431641 67.22360992431641 C 63.68735504150391 70.75986480712891 59.56985473632812 73.53606414794922 54.98547744750977 75.47509765625 C 50.23996734619141 77.48227691650391 45.19812393188477 78.5 40 78.5 Z" stroke="none"/>
        <path d="M 40 3 C 35.00370788574219 3 30.15845489501953 3.977851867675781 25.59883880615234 5.906410217285156 C 21.19326782226562 7.769813537597656 17.23602676391602 10.43806457519531 13.83704376220703 13.83704376220703 C 10.43806457519531 17.23602676391602 7.769813537597656 21.19326782226562 5.906410217285156 25.59883880615234 C 3.977851867675781 30.15845489501953 3 35.00370788574219 3 40 C 3 44.99629211425781 3.977851867675781 49.84153366088867 5.906410217285156 54.40114593505859 C 7.769813537597656 58.80672073364258 10.43806457519531 62.76396179199219 13.83704376220703 66.16294860839844 C 17.23602676391602 69.56193542480469 21.19326782226562 72.23018646240234 25.59885406494141 74.09358978271484 C 30.15846633911133 76.02214813232422 35.00370788574219 77 40 77 C 44.99629211425781 77 49.84153366088867 76.02214813232422 54.40114593505859 74.09358978271484 C 58.80672073364258 72.23018646240234 62.76396179199219 69.56193542480469 66.16294860839844 66.16294860839844 C 69.56193542480469 62.76396179199219 72.23018646240234 58.80672073364258 74.09358978271484 54.40114593505859 C 76.02214813232422 49.84153366088867 77 44.99629211425781 77 40 C 77 35.00370788574219 76.02214813232422 30.15846633911133 74.09358978271484 25.59885406494141 C 72.23018646240234 21.19326782226562 69.56193542480469 17.23602676391602 66.16294860839844 13.83704376220703 C 62.76396179199219 10.43806457519531 58.80672073364258 7.769813537597656 54.40114593505859 5.906410217285156 C 49.84153366088867 3.977851867675781 44.99629211425781 3 40 3 M 40 0 C 62.09138488769531 0 80 17.90859985351562 80 40 C 80 62.09138488769531 62.09138488769531 80 40 80 C 17.90859985351562 80 0 62.09138488769531 0 40 C 0 17.90859985351562 17.90859985351562 0 40 0 Z" stroke="none" fill="#fdfdfd"/>
      </g>
    </g>
    <g id="icono-infraestructura-daคada" transform="translate(3998.564 4194.131)">
      <g id="Group_1844" data-name="Group 1844" transform="translate(8.936 10.142)">
        <path id="Trazado_140_00000091704463957165777840000006514469501766116027_" d="M26.3,10.962l-4-.82L19.053,25.958l4.824-3.184Z" transform="translate(3.829 -10.142)" fill="#fdfdfd"/>
        <path id="Trazado_140_00000176749411241036786810000016570118169001031817_" d="M21.9,34.594l4-.839-3.315-15.8-3.161,4.839Z" transform="translate(4.294 -0.283)" fill="#fdfdfd"/>
        <rect id="Rectángulo_48_00000029012921413249576500000001562044596402932130_" width="3.498" height="33.818" transform="translate(0 0.246)" fill="#fdfdfd"/>
        <rect id="Rectángulo_49_00000137123706531072153990000000890788664860563643_" width="4.664" height="9.329" transform="translate(11.661 0.246)" fill="#fdfdfd"/>
        <rect id="Rectángulo_50_00000121974568775871071040000002830302162603916440_" width="8.164" height="4.664" transform="translate(10.673 20.483) rotate(-74.823)" fill="#fdfdfd"/>
        <rect id="Rectángulo_51_00000048477939124560109660000003154560198854647735_" width="4.664" height="9.329" transform="translate(11.661 24.734)" fill="#fdfdfd"/>
      </g>
    </g>
  </g>
</svg>
