<svg xmlns="http://www.w3.org/2000/svg" width="80" height="80" viewBox="0 0 80 80">
  <g id="Group_1873" data-name="Group 1873" transform="translate(-2284 -4184)">
    <g id="Group_1815" data-name="Group 1815" transform="translate(-494 -974)">
      <g id="Group_1497" data-name="Group 1497" transform="translate(2507 5087)">
        <g id="Path_52700" data-name="Path 52700" transform="translate(271 71)" fill="#36c">
          <path d="M 40 78.5 C 34.80187606811523 78.5 29.76003265380859 77.48227691650391 25.01452255249023 75.47509765625 C 20.43014526367188 73.53606414794922 16.31264495849609 70.75986480712891 12.77638912200928 67.22360992431641 C 9.240133285522461 63.68735504150391 6.46393346786499 59.56985473632812 4.524899959564209 54.98547744750977 C 2.517722129821777 50.23996734619141 1.5 45.19812393188477 1.5 40 C 1.5 34.80187606811523 2.517722129821777 29.76003265380859 4.524899959564209 25.01452255249023 C 6.46393346786499 20.43014526367188 9.240133285522461 16.31264495849609 12.77638912200928 12.77638912200928 C 16.31264495849609 9.240133285522461 20.43014526367188 6.46393346786499 25.01452255249023 4.524899959564209 C 29.76003265380859 2.517722129821777 34.80187606811523 1.5 40 1.5 C 45.19812393188477 1.5 50.23996734619141 2.517722129821777 54.98547744750977 4.524899959564209 C 59.56985473632812 6.46393346786499 63.68735504150391 9.240133285522461 67.22360992431641 12.77638912200928 C 70.75986480712891 16.31264495849609 73.53606414794922 20.43014526367188 75.47509765625 25.01452255249023 C 77.48227691650391 29.76003265380859 78.5 34.80187606811523 78.5 40 C 78.5 45.19812393188477 77.48227691650391 50.23996734619141 75.47509765625 54.98547744750977 C 73.53606414794922 59.56985473632812 70.75986480712891 63.68735504150391 67.22360992431641 67.22360992431641 C 63.68735504150391 70.75986480712891 59.56985473632812 73.53606414794922 54.98547744750977 75.47509765625 C 50.23996734619141 77.48227691650391 45.19812393188477 78.5 40 78.5 Z" stroke="none"/>
          <path d="M 40 3 C 35.00370788574219 3 30.15845489501953 3.977851867675781 25.59883880615234 5.906410217285156 C 21.19326782226562 7.769813537597656 17.23602676391602 10.43806457519531 13.83704376220703 13.83704376220703 C 10.43806457519531 17.23602676391602 7.769813537597656 21.19326782226562 5.906410217285156 25.59883880615234 C 3.977851867675781 30.15845489501953 3 35.00370788574219 3 40 C 3 44.99629211425781 3.977851867675781 49.84153366088867 5.906410217285156 54.40114593505859 C 7.769813537597656 58.80672073364258 10.43806457519531 62.76396179199219 13.83704376220703 66.16294860839844 C 17.23602676391602 69.56193542480469 21.19326782226562 72.23018646240234 25.59885406494141 74.09358978271484 C 30.15846633911133 76.02214813232422 35.00370788574219 77 40 77 C 44.99629211425781 77 49.84153366088867 76.02214813232422 54.40114593505859 74.09358978271484 C 58.80672073364258 72.23018646240234 62.76396179199219 69.56193542480469 66.16294860839844 66.16294860839844 C 69.56193542480469 62.76396179199219 72.23018646240234 58.80672073364258 74.09358978271484 54.40114593505859 C 76.02214813232422 49.84153366088867 77 44.99629211425781 77 40 C 77 35.00370788574219 76.02214813232422 30.15846633911133 74.09358978271484 25.59885406494141 C 72.23018646240234 21.19326782226562 69.56193542480469 17.23602676391602 66.16294860839844 13.83704376220703 C 62.76396179199219 10.43806457519531 58.80672073364258 7.769813537597656 54.40114593505859 5.906410217285156 C 49.84153366088867 3.977851867675781 44.99629211425781 3 40 3 M 40 0 C 62.09138488769531 0 80 17.90859985351562 80 40 C 80 62.09138488769531 62.09138488769531 80 40 80 C 17.90859985351562 80 0 62.09138488769531 0 40 C 0 17.90859985351562 17.90859985351562 0 40 0 Z" stroke="none" fill="#fdfdfd"/>
        </g>
        <g id="Grupo_32" transform="translate(291.55 87.596)">
          <path id="Trazado_98" d="M4.659,28.249H28.409V19.766H4.659ZM24.167,21.46a2.545,2.545,0,1,1-2.545,2.545,2.545,2.545,0,0,1,2.545-2.545h0v0ZM8.9,21.46a2.545,2.545,0,1,1-2.545,2.545A2.545,2.545,0,0,1,8.9,21.46h0Z" transform="translate(0.371 2.229)" fill="#fff" opacity="0.3"/>
          <ellipse id="Elipse_21" cx="2.552" cy="2.547" rx="2.552" ry="2.547" transform="translate(6.711 23.684)" fill="#fff"/>
          <ellipse id="Elipse_22" cx="2.545" cy="2.547" rx="2.545" ry="2.547" transform="translate(21.994 23.684)" fill="#fff"/>
          <path id="Trazado_99" d="M28.78,29.55H5.031V21.069H28.78a11.766,11.766,0,0,1-8.3-3.393H6.405l1.765-5.09H17.4c-.323-1.068.032-3.4-.492-3.393s-1.388-.051-2.406,0H7.576a2.551,2.551,0,0,0-2.414,1.714L1.638,21.069V34.645a1.7,1.7,0,0,0,1.7,1.7h1.7a1.7,1.7,0,0,0,1.7-1.7v-1.7H27.083v1.7a1.7,1.7,0,0,0,1.7,1.7h1.7a1.7,1.7,0,0,0,1.7-1.7V21.064l-.151-.453a12.057,12.057,0,0,1-3.24.453Z" transform="translate(0 0.926)" fill="#fff"/>
          <g id="Grupo_31" transform="translate(20.298 1.639)">
            <path id="Trazado_100_00000167380241515298628150000017006553422689525144_" d="M14.367,1.639a8.482,8.482,0,1,0,8.482,8.482h0A8.485,8.485,0,0,0,14.367,1.639Zm.848,3.393v6.788h-1.7V5.031Zm0,10.178h-1.7v-1.7h1.7Z" transform="translate(-5.885 -1.639)" fill="#fff"/>
          </g>
        </g>
      </g>
    </g>
  </g>
</svg>
