<svg xmlns="http://www.w3.org/2000/svg" width="80" height="80" viewBox="0 0 80 80">
  <g id="Group_1863" data-name="Group 1863" transform="translate(-3379 -4184)">
    <g id="Group_1837" data-name="Group 1837" transform="translate(207)">
      <g id="Path_52840" data-name="Path 52840" transform="translate(3172 4184)" fill="#36c">
        <path d="M 40 78.5 C 34.80187606811523 78.5 29.76003265380859 77.48227691650391 25.01452255249023 75.47509765625 C 20.43014526367188 73.53606414794922 16.31264495849609 70.75986480712891 12.77638912200928 67.22360992431641 C 9.240133285522461 63.68735504150391 6.46393346786499 59.56985473632812 4.524899959564209 54.98547744750977 C 2.517722129821777 50.23996734619141 1.5 45.19812393188477 1.5 40 C 1.5 34.80187606811523 2.517722129821777 29.76003265380859 4.524899959564209 25.01452255249023 C 6.46393346786499 20.43014526367188 9.240133285522461 16.31264495849609 12.77638912200928 12.77638912200928 C 16.31264495849609 9.240133285522461 20.43014526367188 6.46393346786499 25.01452255249023 4.524899959564209 C 29.76003265380859 2.517722129821777 34.80187606811523 1.5 40 1.5 C 45.19812393188477 1.5 50.23996734619141 2.517722129821777 54.98547744750977 4.524899959564209 C 59.56985473632812 6.46393346786499 63.68735504150391 9.240133285522461 67.22360992431641 12.77638912200928 C 70.75986480712891 16.31264495849609 73.53606414794922 20.43014526367188 75.47509765625 25.01452255249023 C 77.48227691650391 29.76003265380859 78.5 34.80187606811523 78.5 40 C 78.5 45.19812393188477 77.48227691650391 50.23996734619141 75.47509765625 54.98547744750977 C 73.53606414794922 59.56985473632812 70.75986480712891 63.68735504150391 67.22360992431641 67.22360992431641 C 63.68735504150391 70.75986480712891 59.56985473632812 73.53606414794922 54.98547744750977 75.47509765625 C 50.23996734619141 77.48227691650391 45.19812393188477 78.5 40 78.5 Z" stroke="none"/>
        <path d="M 40 3 C 35.00370788574219 3 30.15845489501953 3.977851867675781 25.59883880615234 5.906410217285156 C 21.19326782226562 7.769813537597656 17.23602676391602 10.43806457519531 13.83704376220703 13.83704376220703 C 10.43806457519531 17.23602676391602 7.769813537597656 21.19326782226562 5.906410217285156 25.59883880615234 C 3.977851867675781 30.15845489501953 3 35.00370788574219 3 40 C 3 44.99629211425781 3.977851867675781 49.84153366088867 5.906410217285156 54.40114593505859 C 7.769813537597656 58.80672073364258 10.43806457519531 62.76396179199219 13.83704376220703 66.16294860839844 C 17.23602676391602 69.56193542480469 21.19326782226562 72.23018646240234 25.59885406494141 74.09358978271484 C 30.15846633911133 76.02214813232422 35.00370788574219 77 40 77 C 44.99629211425781 77 49.84153366088867 76.02214813232422 54.40114593505859 74.09358978271484 C 58.80672073364258 72.23018646240234 62.76396179199219 69.56193542480469 66.16294860839844 66.16294860839844 C 69.56193542480469 62.76396179199219 72.23018646240234 58.80672073364258 74.09358978271484 54.40114593505859 C 76.02214813232422 49.84153366088867 77 44.99629211425781 77 40 C 77 35.00370788574219 76.02214813232422 30.15846633911133 74.09358978271484 25.59885406494141 C 72.23018646240234 21.19326782226562 69.56193542480469 17.23602676391602 66.16294860839844 13.83704376220703 C 62.76396179199219 10.43806457519531 58.80672073364258 7.769813537597656 54.40114593505859 5.906410217285156 C 49.84153366088867 3.977851867675781 44.99629211425781 3 40 3 M 40 0 C 62.09138488769531 0 80 17.90859985351562 80 40 C 80 62.09138488769531 62.09138488769531 80 40 80 C 17.90859985351562 80 0 62.09138488769531 0 40 C 0 17.90859985351562 17.90859985351562 0 40 0 Z" stroke="none" fill="#fdfdfd"/>
      </g>
      <g id="icono-trafico-anormal" transform="translate(3186 4194.827)">
        <g id="Group_1836" data-name="Group 1836" transform="translate(5.345 10.142)">
          <g id="Group_1834" data-name="Group 1834" transform="translate(13.945 5.516)">
            <circle id="Elipse_57_00000088095047873262467770000013435964063471965337_" cx="1.921" cy="1.921" r="1.921" transform="translate(13.341 9.798)" fill="#fdfdfd"/>
            <path id="Path_52854" data-name="Path 52854" d="M29.392,13.683a1.844,1.844,0,0,0-1.751-1.246H14.07a1.855,1.855,0,0,0-1.752,1.246l-1.174,3.379h2.608L14.5,14.9H27.2l1.332,3.836h-9.78c.022.055.046.105.066.164l.744,2.168h9.933V27.24H21.674l.073.212v2.256h6.512v1.234a1.237,1.237,0,0,0,1.234,1.234h1.234a1.237,1.237,0,0,0,1.234-1.234V21.072Z" transform="translate(-11.144 -12.437)" fill="#fdfdfd"/>
            <path id="Path_52855" data-name="Path 52855" d="M14.643,16.028,16.76,22.2h7.817V16.028Zm6.844,4.93a1.848,1.848,0,0,1,0-3.7h.005a1.848,1.848,0,1,1-.005,3.7Z" transform="translate(-6.23 -7.392)" fill="#fdfdfd" opacity="0.3"/>
          </g>
          <g id="Group_1835" data-name="Group 1835" transform="translate(26.448)">
            <circle id="Elipse_57_00000146481872632257659910000004935529328690149003_" cx="1.781" cy="1.781" r="1.781" transform="translate(12.364 9.081)" fill="#fdfdfd"/>
            <path id="Path_52856" data-name="Path 52856" d="M33.255,11.3a1.708,1.708,0,0,0-1.623-1.155H19.056A1.719,1.719,0,0,0,17.432,11.3l-1.088,3.132h2.417l.695-2H31.22l1.234,3.556H23.391c.02.051.043.1.061.152l.689,2.009h9.206v5.716H26.1l.067.2v2.091h6.035v1.143a1.147,1.147,0,0,0,1.143,1.143h1.143a1.147,1.147,0,0,0,1.143-1.143V18.145Z" transform="translate(-16.344 -10.142)" fill="#fdfdfd"/>
            <path id="Path_52857" data-name="Path 52857" d="M19.587,13.471l1.962,5.716h7.244V13.471ZM25.93,18.04a1.713,1.713,0,0,1,0-3.426h0a1.713,1.713,0,0,1,0,3.426Z" transform="translate(-11.79 -5.468)" fill="#fdfdfd" opacity="0.3"/>
          </g>
          <g id="Grupo_814_00000118397634880818695010000005201795790309398428_" transform="translate(0 11.913)">
            <path id="Trazado_31_00000176030308446778561610000015522676051108023172_" d="M582.665,490.635h17.661v-6.307H582.665Zm14.507-5.046a1.89,1.89,0,1,1-.005,0Zm-11.356,0a1.89,1.89,0,1,1-.005,0Z" transform="translate(-580.142 -475.498)" fill="#fdfdfd" opacity="0.3"/>
            <path id="Trazado_32_00000054974644270954205920000011658371072882689680_" d="M601.7,481.93a1.885,1.885,0,0,0-1.79-1.274H586.031a1.9,1.9,0,0,0-1.792,1.274l-2.624,7.553v10.092a1.265,1.265,0,0,0,1.262,1.261h1.261a1.265,1.265,0,0,0,1.261-1.261v-1.258h15.14v1.261a1.265,1.265,0,0,0,1.261,1.261h1.262a1.265,1.265,0,0,0,1.261-1.261V489.486Zm-15.226,1.248h12.98l1.362,3.923H585.11ZM601.8,495.793H584.139v-6.307H601.8Z" transform="translate(-581.616 -480.656)" fill="#fdfdfd"/>
            <circle id="Elipse_56_00000109719136355598909360000012499522757665506217_" cx="1.892" cy="1.892" r="1.892" transform="translate(3.782 10.092)" fill="#fdfdfd"/>
            <circle id="Elipse_57_00000012431199997920480940000003677283047103640473_" cx="1.965" cy="1.965" r="1.965" transform="translate(15.065 10.019)" fill="#fdfdfd"/>
          </g>
        </g>
      </g>
    </g>
  </g>
</svg>
