<svg xmlns="http://www.w3.org/2000/svg" width="80" height="80" viewBox="0 0 80 80">
  <g id="Group_1869" data-name="Group 1869" transform="translate(-2723 -4184)">
    <g id="Group_1823" data-name="Group 1823" transform="translate(-55 -974)">
      <g id="Group_1497" data-name="Group 1497" transform="translate(2507 5087)">
        <g id="Path_52700" data-name="Path 52700" transform="translate(271 71)" fill="#36c">
          <path d="M 40 78.5 C 34.80187606811523 78.5 29.76003265380859 77.48227691650391 25.01452255249023 75.47509765625 C 20.43014526367188 73.53606414794922 16.31264495849609 70.75986480712891 12.77638912200928 67.22360992431641 C 9.240133285522461 63.68735504150391 6.46393346786499 59.56985473632812 4.524899959564209 54.98547744750977 C 2.517722129821777 50.23996734619141 1.5 45.19812393188477 1.5 40 C 1.5 34.80187606811523 2.517722129821777 29.76003265380859 4.524899959564209 25.01452255249023 C 6.46393346786499 20.43014526367188 9.240133285522461 16.31264495849609 12.77638912200928 12.77638912200928 C 16.31264495849609 9.240133285522461 20.43014526367188 6.46393346786499 25.01452255249023 4.524899959564209 C 29.76003265380859 2.517722129821777 34.80187606811523 1.5 40 1.5 C 45.19812393188477 1.5 50.23996734619141 2.517722129821777 54.98547744750977 4.524899959564209 C 59.56985473632812 6.46393346786499 63.68735504150391 9.240133285522461 67.22360992431641 12.77638912200928 C 70.75986480712891 16.31264495849609 73.53606414794922 20.43014526367188 75.47509765625 25.01452255249023 C 77.48227691650391 29.76003265380859 78.5 34.80187606811523 78.5 40 C 78.5 45.19812393188477 77.48227691650391 50.23996734619141 75.47509765625 54.98547744750977 C 73.53606414794922 59.56985473632812 70.75986480712891 63.68735504150391 67.22360992431641 67.22360992431641 C 63.68735504150391 70.75986480712891 59.56985473632812 73.53606414794922 54.98547744750977 75.47509765625 C 50.23996734619141 77.48227691650391 45.19812393188477 78.5 40 78.5 Z" stroke="none"/>
          <path d="M 40 3 C 35.00370788574219 3 30.15845489501953 3.977851867675781 25.59883880615234 5.906410217285156 C 21.19326782226562 7.769813537597656 17.23602676391602 10.43806457519531 13.83704376220703 13.83704376220703 C 10.43806457519531 17.23602676391602 7.769813537597656 21.19326782226562 5.906410217285156 25.59883880615234 C 3.977851867675781 30.15845489501953 3 35.00370788574219 3 40 C 3 44.99629211425781 3.977851867675781 49.84153366088867 5.906410217285156 54.40114593505859 C 7.769813537597656 58.80672073364258 10.43806457519531 62.76396179199219 13.83704376220703 66.16294860839844 C 17.23602676391602 69.56193542480469 21.19326782226562 72.23018646240234 25.59885406494141 74.09358978271484 C 30.15846633911133 76.02214813232422 35.00370788574219 77 40 77 C 44.99629211425781 77 49.84153366088867 76.02214813232422 54.40114593505859 74.09358978271484 C 58.80672073364258 72.23018646240234 62.76396179199219 69.56193542480469 66.16294860839844 66.16294860839844 C 69.56193542480469 62.76396179199219 72.23018646240234 58.80672073364258 74.09358978271484 54.40114593505859 C 76.02214813232422 49.84153366088867 77 44.99629211425781 77 40 C 77 35.00370788574219 76.02214813232422 30.15846633911133 74.09358978271484 25.59885406494141 C 72.23018646240234 21.19326782226562 69.56193542480469 17.23602676391602 66.16294860839844 13.83704376220703 C 62.76396179199219 10.43806457519531 58.80672073364258 7.769813537597656 54.40114593505859 5.906410217285156 C 49.84153366088867 3.977851867675781 44.99629211425781 3 40 3 M 40 0 C 62.09138488769531 0 80 17.90859985351562 80 40 C 80 62.09138488769531 62.09138488769531 80 40 80 C 17.90859985351562 80 0 62.09138488769531 0 40 C 0 17.90859985351562 17.90859985351562 0 40 0 Z" stroke="none" fill="#fdfdfd"/>
        </g>
        <g id="Group_1824" data-name="Group 1824" transform="translate(286 81.565)">
          <path id="Path_52831" data-name="Path 52831" d="M14.573,15.74l2.176.57-3.6,3.674a1.318,1.318,0,0,0,.266,2.053l7.225,4.312a4.184,4.184,0,0,1,.919,6.443L14.728,40.14,8.46,35.115l5.886-4.1a2.5,2.5,0,0,0,.1-4.024L9.756,23.37a2.5,2.5,0,0,1,.013-3.975Z" transform="translate(0 10.239)" fill="#fff"/>
          <path id="Path_52832" data-name="Path 52832" d="M18.575,17.05l2.124.7-1.148,1.266a1.221,1.221,0,0,0,.331,1.9l11.483,6.107a3.683,3.683,0,0,1,1.416,5.167l-3.715,6.1-6.3-4.98,2.522-2.166a2.649,2.649,0,0,0-.208-4.181l-8-5.593a1.83,1.83,0,0,1-.157-2.876Z" transform="translate(11.075 12.089)" fill="#fff"/>
          <path id="Path_52833" data-name="Path 52833" d="M31.132,12.954a1.586,1.586,0,0,0-1.181-1.421L18.674,8.543a1.6,1.6,0,0,0-1.73.649l-3.76,5.575-2.174,8.2a1.062,1.062,0,0,0,.753,1.3l1.025.272a1.064,1.064,0,0,0,1.3-.753l.272-1.025,12.3,3.261-.272,1.025a1.062,1.062,0,0,0,.753,1.3l1.025.272a1.063,1.063,0,0,0,1.3-.753l2.174-8.2ZM18.49,10.689l10.549,2.8.262,3.482L16.535,13.584Z" transform="translate(3.552)" fill="#fff"/>
        </g>
      </g>
    </g>
  </g>
</svg>
