<svg xmlns="http://www.w3.org/2000/svg" width="80" height="80" viewBox="0 0 80 80">
  <g id="Group_1862" data-name="Group 1862" transform="translate(-3476 -4184)">
    <g id="Group_1838" data-name="Group 1838" transform="translate(304)">
      <g id="Path_52840" data-name="Path 52840" transform="translate(3172 4184)" fill="#36c">
        <path d="M 40 78.5 C 34.80187606811523 78.5 29.76003265380859 77.48227691650391 25.01452255249023 75.47509765625 C 20.43014526367188 73.53606414794922 16.31264495849609 70.75986480712891 12.77638912200928 67.22360992431641 C 9.240133285522461 63.68735504150391 6.46393346786499 59.56985473632812 4.524899959564209 54.98547744750977 C 2.517722129821777 50.23996734619141 1.5 45.19812393188477 1.5 40 C 1.5 34.80187606811523 2.517722129821777 29.76003265380859 4.524899959564209 25.01452255249023 C 6.46393346786499 20.43014526367188 9.240133285522461 16.31264495849609 12.77638912200928 12.77638912200928 C 16.31264495849609 9.240133285522461 20.43014526367188 6.46393346786499 25.01452255249023 4.524899959564209 C 29.76003265380859 2.517722129821777 34.80187606811523 1.5 40 1.5 C 45.19812393188477 1.5 50.23996734619141 2.517722129821777 54.98547744750977 4.524899959564209 C 59.56985473632812 6.46393346786499 63.68735504150391 9.240133285522461 67.22360992431641 12.77638912200928 C 70.75986480712891 16.31264495849609 73.53606414794922 20.43014526367188 75.47509765625 25.01452255249023 C 77.48227691650391 29.76003265380859 78.5 34.80187606811523 78.5 40 C 78.5 45.19812393188477 77.48227691650391 50.23996734619141 75.47509765625 54.98547744750977 C 73.53606414794922 59.56985473632812 70.75986480712891 63.68735504150391 67.22360992431641 67.22360992431641 C 63.68735504150391 70.75986480712891 59.56985473632812 73.53606414794922 54.98547744750977 75.47509765625 C 50.23996734619141 77.48227691650391 45.19812393188477 78.5 40 78.5 Z" stroke="none"/>
        <path d="M 40 3 C 35.00370788574219 3 30.15845489501953 3.977851867675781 25.59883880615234 5.906410217285156 C 21.19326782226562 7.769813537597656 17.23602676391602 10.43806457519531 13.83704376220703 13.83704376220703 C 10.43806457519531 17.23602676391602 7.769813537597656 21.19326782226562 5.906410217285156 25.59883880615234 C 3.977851867675781 30.15845489501953 3 35.00370788574219 3 40 C 3 44.99629211425781 3.977851867675781 49.84153366088867 5.906410217285156 54.40114593505859 C 7.769813537597656 58.80672073364258 10.43806457519531 62.76396179199219 13.83704376220703 66.16294860839844 C 17.23602676391602 69.56193542480469 21.19326782226562 72.23018646240234 25.59885406494141 74.09358978271484 C 30.15846633911133 76.02214813232422 35.00370788574219 77 40 77 C 44.99629211425781 77 49.84153366088867 76.02214813232422 54.40114593505859 74.09358978271484 C 58.80672073364258 72.23018646240234 62.76396179199219 69.56193542480469 66.16294860839844 66.16294860839844 C 69.56193542480469 62.76396179199219 72.23018646240234 58.80672073364258 74.09358978271484 54.40114593505859 C 76.02214813232422 49.84153366088867 77 44.99629211425781 77 40 C 77 35.00370788574219 76.02214813232422 30.15846633911133 74.09358978271484 25.59885406494141 C 72.23018646240234 21.19326782226562 69.56193542480469 17.23602676391602 66.16294860839844 13.83704376220703 C 62.76396179199219 10.43806457519531 58.80672073364258 7.769813537597656 54.40114593505859 5.906410217285156 C 49.84153366088867 3.977851867675781 44.99629211425781 3 40 3 M 40 0 C 62.09138488769531 0 80 17.90859985351562 80 40 C 80 62.09138488769531 62.09138488769531 80 40 80 C 17.90859985351562 80 0 62.09138488769531 0 40 C 0 17.90859985351562 17.90859985351562 0 40 0 Z" stroke="none" fill="#fdfdfd"/>
      </g>
      <g id="Grupo_991_00000109738161040448366810000013897137861680125109_" transform="matrix(-0.052, 0.999, -0.999, -0.052, 3229.858, 4204.935)">
        <g id="Grupo_39_00000066481309549039312040000005913190188903394739_" transform="translate(0 0)">
          <path id="Trazado_121_00000166646575820489534910000005247850616071900066_" d="M4.423,3.988A4.221,4.221,0,0,0,0,.005L.44,8.41A4.221,4.221,0,0,0,4.423,3.988Z" transform="translate(10.294 13.922)" fill="#fdfdfd" opacity="0.3"/>
          <path id="Trazado_122_00000139982317146144357190000010436023077241558668_" d="M3.965,1A1.042,1.042,0,0,0,2.88,0H2.859L0,.152A8.055,8.055,0,0,0,.972,2.208l2-.1a1.042,1.042,0,0,0,1-1.083C3.965,1.013,3.965,1.005,3.965,1Z" transform="translate(0.41 20.614)" fill="#fdfdfd" opacity="0.3"/>
          <path id="Trazado_123_00000095327487438186855360000008741529288515576474_" d="M3.854,1A1.042,1.042,0,0,0,2.77,0H2.749l-2,.1A8.053,8.053,0,0,0,0,2.253L2.858,2.1a1.042,1.042,0,0,0,1-1.083C3.855,1.013,3.855,1.005,3.854,1Z" transform="translate(0.19 14.309)" fill="#fdfdfd" opacity="0.3"/>
          <path id="Trazado_124_00000163769017399218204110000009426258183482669998_" d="M.026,12.828c.3,5.647,3.325,11.984,4.863,12.388L3.567,0C2.1.495-.272,7.151.026,12.828Z" transform="translate(27.303 4.421)" fill="#fdfdfd" opacity="0.3"/>
          <path id="Trazado_125_00000104707699367062368570000000283053628521206920_" d="M.026,17.471c.294,5.608,3.7,16.663,9.286,16.37l4.2-.22L11.752,0,7.55.22C1.96.513-.269,11.857.026,17.471ZM9.092,29.639c-1.537-.383-4.567-6.74-4.863-12.388C3.931,11.576,6.3,4.919,7.77,4.423Z" transform="translate(23.099)" fill="#fdfdfd"/>
          <path id="Trazado_126_00000115472901752592941010000005252697202252909482_" d="M10.982,18.88l-.029-.546a8.417,8.417,0,1,0-.876-16.811h0L10.044.977A1.033,1.033,0,0,0,8.96,0L8.919,0a1.032,1.032,0,0,0-.976,1.084l.029.546A8.417,8.417,0,0,0,.941,6.216l2-.1a1.052,1.052,0,0,1,.11,2.1L.19,8.363a8.61,8.61,0,0,0-.184,2.117,8.615,8.615,0,0,0,.4,2.086l2.858-.15a1.052,1.052,0,0,1,.111,2.1h0l-2,.1a8.417,8.417,0,0,0,7.47,3.823l.029.546a1.033,1.033,0,0,0,1.085.976l.063,0A1.028,1.028,0,0,0,10.982,18.88ZM10.292,5.726a4.208,4.208,0,0,1,.442,8.405h0Z" transform="translate(0 8.202)" fill="#fdfdfd"/>
        </g>
      </g>
    </g>
  </g>
</svg>
