<svg xmlns="http://www.w3.org/2000/svg" width="80" height="80" viewBox="0 0 80 80">
  <g id="Group_1864" data-name="Group 1864" transform="translate(-3282 -4184)">
    <g id="Group_1832" data-name="Group 1832" transform="translate(110)">
      <g id="Path_52840" data-name="Path 52840" transform="translate(3172 4184)" fill="#36c">
        <path d="M 40 78.5 C 34.80187606811523 78.5 29.76003265380859 77.48227691650391 25.01452255249023 75.47509765625 C 20.43014526367188 73.53606414794922 16.31264495849609 70.75986480712891 12.77638912200928 67.22360992431641 C 9.240133285522461 63.68735504150391 6.46393346786499 59.56985473632812 4.524899959564209 54.98547744750977 C 2.517722129821777 50.23996734619141 1.5 45.19812393188477 1.5 40 C 1.5 34.80187606811523 2.517722129821777 29.76003265380859 4.524899959564209 25.01452255249023 C 6.46393346786499 20.43014526367188 9.240133285522461 16.31264495849609 12.77638912200928 12.77638912200928 C 16.31264495849609 9.240133285522461 20.43014526367188 6.46393346786499 25.01452255249023 4.524899959564209 C 29.76003265380859 2.517722129821777 34.80187606811523 1.5 40 1.5 C 45.19812393188477 1.5 50.23996734619141 2.517722129821777 54.98547744750977 4.524899959564209 C 59.56985473632812 6.46393346786499 63.68735504150391 9.240133285522461 67.22360992431641 12.77638912200928 C 70.75986480712891 16.31264495849609 73.53606414794922 20.43014526367188 75.47509765625 25.01452255249023 C 77.48227691650391 29.76003265380859 78.5 34.80187606811523 78.5 40 C 78.5 45.19812393188477 77.48227691650391 50.23996734619141 75.47509765625 54.98547744750977 C 73.53606414794922 59.56985473632812 70.75986480712891 63.68735504150391 67.22360992431641 67.22360992431641 C 63.68735504150391 70.75986480712891 59.56985473632812 73.53606414794922 54.98547744750977 75.47509765625 C 50.23996734619141 77.48227691650391 45.19812393188477 78.5 40 78.5 Z" stroke="none"/>
        <path d="M 40 3 C 35.00370788574219 3 30.15845489501953 3.977851867675781 25.59883880615234 5.906410217285156 C 21.19326782226562 7.769813537597656 17.23602676391602 10.43806457519531 13.83704376220703 13.83704376220703 C 10.43806457519531 17.23602676391602 7.769813537597656 21.19326782226562 5.906410217285156 25.59883880615234 C 3.977851867675781 30.15845489501953 3 35.00370788574219 3 40 C 3 44.99629211425781 3.977851867675781 49.84153366088867 5.906410217285156 54.40114593505859 C 7.769813537597656 58.80672073364258 10.43806457519531 62.76396179199219 13.83704376220703 66.16294860839844 C 17.23602676391602 69.56193542480469 21.19326782226562 72.23018646240234 25.59885406494141 74.09358978271484 C 30.15846633911133 76.02214813232422 35.00370788574219 77 40 77 C 44.99629211425781 77 49.84153366088867 76.02214813232422 54.40114593505859 74.09358978271484 C 58.80672073364258 72.23018646240234 62.76396179199219 69.56193542480469 66.16294860839844 66.16294860839844 C 69.56193542480469 62.76396179199219 72.23018646240234 58.80672073364258 74.09358978271484 54.40114593505859 C 76.02214813232422 49.84153366088867 77 44.99629211425781 77 40 C 77 35.00370788574219 76.02214813232422 30.15846633911133 74.09358978271484 25.59885406494141 C 72.23018646240234 21.19326782226562 69.56193542480469 17.23602676391602 66.16294860839844 13.83704376220703 C 62.76396179199219 10.43806457519531 58.80672073364258 7.769813537597656 54.40114593505859 5.906410217285156 C 49.84153366088867 3.977851867675781 44.99629211425781 3 40 3 M 40 0 C 62.09138488769531 0 80 17.90859985351562 80 40 C 80 62.09138488769531 62.09138488769531 80 40 80 C 17.90859985351562 80 0 62.09138488769531 0 40 C 0 17.90859985351562 17.90859985351562 0 40 0 Z" stroke="none" fill="#fdfdfd"/>
      </g>
      <g id="icono-obstruccion-vehicular" transform="translate(3240 4282.104)">
        <g id="Group_1830" data-name="Group 1830" transform="translate(-50.525 -87.779)">
          <path id="Path_52845" data-name="Path 52845" d="M12.034,13.28l-1.8,5.19H31.008l-1.8-5.19Z" transform="translate(4.593 4.035)" fill="none"/>
          <path id="Path_52846" data-name="Path 52846" d="M49.322,39.588A24.8,24.8,0,1,0,2.946,22.5H6.685l7.137,7.838h9.144a.4.4,0,0,1,.4.4v8.11a.709.709,0,0,1-.709.709H19.939a5.341,5.341,0,0,1-10.683,0H4.41a24.812,24.812,0,0,0,21.628,14.27L26,53.856l.51,0c.122,0,.239.018.361.018.157,0,.309-.02.465-.024l30.234-.192Zm-7.033,3.643A1.673,1.673,0,0,1,40.62,44.9H38.951a1.673,1.673,0,0,1-1.669-1.669V41.563H25.608V29.15a.8.8,0,0,0-.826-.775H15.053l-1.637-1.862,2.3-6.628a2.509,2.509,0,0,1,2.37-1.686H36.447a2.494,2.494,0,0,1,2.368,1.686l3.474,10V43.231Z" transform="translate(-2.046 -4.221)" fill="none"/>
          <circle id="Ellipse_183" data-name="Ellipse 183" cx="1.875" cy="1.875" r="1.875" transform="translate(10.676 33.461)" fill="none"/>
          <path id="Path_52847" data-name="Path 52847" d="M11.366,20.365l-4.694-5.2H2.812a24.885,24.885,0,0,0-.337,3.908c0,.437.042.863.064,1.294h8.827Z" transform="translate(-2.475 5.753)" fill="none"/>
          <path id="Path_52848" data-name="Path 52848" d="M28.144,17.645H14.8v8.344H28.144Zm-4.172,6.647a2.6,2.6,0,1,1,2.6-2.6A2.6,2.6,0,0,1,23.971,24.292Z" transform="translate(8.76 8.014)" fill="#fdfdfd" opacity="0.3"/>
          <path id="Path_52849" data-name="Path 52849" d="M15,36.183a5.342,5.342,0,0,0,5.341-5.341h2.719a.709.709,0,0,0,.709-.709v-8.11a.4.4,0,0,0-.4-.4H14.221L7.084,13.785H3.345a24.677,24.677,0,0,0-.563,2.636h3.86l4.694,5.2H2.509a24.608,24.608,0,0,0,2.3,9.219H9.655A5.342,5.342,0,0,0,15,36.183Zm0-7.218a1.875,1.875,0,1,1-1.875,1.875A1.875,1.875,0,0,1,15,28.965Z" transform="translate(-2.445 4.496)" fill="#fdfdfd"/>
          <path id="Path_52850" data-name="Path 52850" d="M20.839,18.4a2.6,2.6,0,1,0,2.6,2.6A2.6,2.6,0,0,0,20.839,18.4Z" transform="translate(11.892 8.705)" fill="#fdfdfd"/>
          <path id="Path_52851" data-name="Path 52851" d="M31.455,11.534H13.1a2.509,2.509,0,0,0-2.37,1.686l-2.3,6.628,1.637,1.862H19.79a.8.8,0,0,1,.826.775v.73H33.957v8.344H20.615V34.9H32.29v1.669a1.673,1.673,0,0,0,1.669,1.669h1.669A1.673,1.673,0,0,0,37.3,36.566V23.215l-3.474-10A2.494,2.494,0,0,0,31.455,11.534ZM11.878,20.061l1.8-5.19H30.852l1.8,5.19Z" transform="translate(2.946 2.444)" fill="#fdfdfd"/>
        </g>
      </g>
    </g>
  </g>
</svg>
