<svg xmlns="http://www.w3.org/2000/svg" width="80" height="80" viewBox="0 0 80 80">
  <g id="Group_1861" data-name="Group 1861" transform="translate(-3573 -4184)">
    <g id="Path_52858" data-name="Path 52858" transform="translate(3573 4184)" fill="#36c">
      <path d="M 40 78.5 C 34.80187606811523 78.5 29.76003265380859 77.48227691650391 25.01452255249023 75.47509765625 C 20.43014526367188 73.53606414794922 16.31264495849609 70.75986480712891 12.77638912200928 67.22360992431641 C 9.240133285522461 63.68735504150391 6.46393346786499 59.56985473632812 4.524899959564209 54.98547744750977 C 2.517722129821777 50.23996734619141 1.5 45.19812393188477 1.5 40 C 1.5 34.80187606811523 2.517722129821777 29.76003265380859 4.524899959564209 25.01452255249023 C 6.46393346786499 20.43014526367188 9.240133285522461 16.31264495849609 12.77638912200928 12.77638912200928 C 16.31264495849609 9.240133285522461 20.43014526367188 6.46393346786499 25.01452255249023 4.524899959564209 C 29.76003265380859 2.517722129821777 34.80187606811523 1.5 40 1.5 C 45.19812393188477 1.5 50.23996734619141 2.517722129821777 54.98547744750977 4.524899959564209 C 59.56985473632812 6.46393346786499 63.68735504150391 9.240133285522461 67.22360992431641 12.77638912200928 C 70.75986480712891 16.31264495849609 73.53606414794922 20.43014526367188 75.47509765625 25.01452255249023 C 77.48227691650391 29.76003265380859 78.5 34.80187606811523 78.5 40 C 78.5 45.19812393188477 77.48227691650391 50.23996734619141 75.47509765625 54.98547744750977 C 73.53606414794922 59.56985473632812 70.75986480712891 63.68735504150391 67.22360992431641 67.22360992431641 C 63.68735504150391 70.75986480712891 59.56985473632812 73.53606414794922 54.98547744750977 75.47509765625 C 50.23996734619141 77.48227691650391 45.19812393188477 78.5 40 78.5 Z" stroke="none"/>
      <path d="M 40 3 C 35.00370788574219 3 30.15845489501953 3.977851867675781 25.59883880615234 5.906410217285156 C 21.19326782226562 7.769813537597656 17.23602676391602 10.43806457519531 13.83704376220703 13.83704376220703 C 10.43806457519531 17.23602676391602 7.769813537597656 21.19326782226562 5.906410217285156 25.59883880615234 C 3.977851867675781 30.15845489501953 3 35.00370788574219 3 40 C 3 44.99629211425781 3.977851867675781 49.84153366088867 5.906410217285156 54.40114593505859 C 7.769813537597656 58.80672073364258 10.43806457519531 62.76396179199219 13.83704376220703 66.16294860839844 C 17.23602676391602 69.56193542480469 21.19326782226562 72.23018646240234 25.59885406494141 74.09358978271484 C 30.15846633911133 76.02214813232422 35.00370788574219 77 40 77 C 44.99629211425781 77 49.84153366088867 76.02214813232422 54.40114593505859 74.09358978271484 C 58.80672073364258 72.23018646240234 62.76396179199219 69.56193542480469 66.16294860839844 66.16294860839844 C 69.56193542480469 62.76396179199219 72.23018646240234 58.80672073364258 74.09358978271484 54.40114593505859 C 76.02214813232422 49.84153366088867 77 44.99629211425781 77 40 C 77 35.00370788574219 76.02214813232422 30.15846633911133 74.09358978271484 25.59885406494141 C 72.23018646240234 21.19326782226562 69.56193542480469 17.23602676391602 66.16294860839844 13.83704376220703 C 62.76396179199219 10.43806457519531 58.80672073364258 7.769813537597656 54.40114593505859 5.906410217285156 C 49.84153366088867 3.977851867675781 44.99629211425781 3 40 3 M 40 0 C 62.09138488769531 0 80 17.90859985351562 80 40 C 80 62.09138488769531 62.09138488769531 80 40 80 C 17.90859985351562 80 0 62.09138488769531 0 40 C 0 17.90859985351562 17.90859985351562 0 40 0 Z" stroke="none" fill="#fdfdfd"/>
    </g>
    <g id="icono-trabajo-construccion" transform="translate(3588.107 4194.536)">
      <g id="Group_1841" data-name="Group 1841" transform="translate(7.035 8.639)">
        <g id="Grupo_501" transform="translate(19.235 23.223)">
          <path id="Trazado_1092" d="M-435.538-336.232-441.306-327h-3.92l-2.03,5.307H-428.2Zm-7.9,10.641h3.805l3.865-6.173,4.207,7.919h-12.547Z" transform="translate(447.255 336.232)" fill="#fdfdfd"/>
          <path id="Trazado_1095" d="M-436.745-335.115l5.919,10.888h-15.653l1.047-3.328,4.062-.216Z" transform="translate(448.211 337.606)" fill="#fdfdfd" opacity="0.3"/>
        </g>
        <path id="Trazado_1519" d="M29.044,27.594l1.308-.794L23.539,15.537l-.056-.1a.009.009,0,0,0-.009-.009c0-.009-.009-.009-.009-.019a1.024,1.024,0,0,0-.121-.159.094.094,0,0,0-.047-.037.453.453,0,0,0-.149-.121l-3.766-2.122a.034.034,0,0,0-.028-.009c-.009-.009-.019-.019-.028-.009a1.517,1.517,0,0,0-1.019-.165l-6.851,1.243a1.556,1.556,0,0,0-1.187,1.028L7.857,19.878l.495.243,2.673,1.336L33.559,32.729l1.15-2.3ZM13.09,17.332l3.075-.561L14.24,20.192l-2.062-1.038Zm6.692,5.626,1.991-3.514,3.9,6.459Z" transform="translate(-6.024 -3.575)" fill="#fdfdfd"/>
        <path id="Path_52861" data-name="Path 52861" d="M20.186,21.364l-3.4-1.692h0L15.456,19l-1.832-.915L7.035,33.271l3.243,1.411,5.944-13.721v0l5.362,13.7,3.3-1.29Z" transform="translate(-7.035 2.972)" fill="#fdfdfd"/>
        <g id="Group_1840" data-name="Group 1840" transform="translate(13.722)">
          <path id="Path_52862" data-name="Path 52862" d="M22.434,14.407l-.076-.04a4.448,4.448,0,0,0-7.737-4.053l-.076-.04a.926.926,0,0,0-.859,1.64l7.889,4.132a.926.926,0,1,0,.859-1.64Z" transform="translate(-13.19 -8.639)" fill="#fdfdfd" opacity="0.3"/>
          <path id="Path_52863" data-name="Path 52863" d="M22.434,14.4l-.076-.04a4.456,4.456,0,0,0-.534-3.7l-.482.921a.758.758,0,1,1-1.344-.7l.689-1.316a.679.679,0,0,1,.044-.054,3.817,3.817,0,0,0-1.194-.625c-.009.022-.008.045-.019.067l-.69,1.316a.758.758,0,0,1-1.344-.7l.482-.921a4.456,4.456,0,0,0-3.346,1.669l-.076-.04a.926.926,0,0,0-.859,1.64l.371.194A4.04,4.04,0,0,0,21.2,15.849l.371.194a.926.926,0,1,0,.859-1.641Z" transform="translate(-13.19 -8.635)" fill="#fdfdfd"/>
        </g>
      </g>
    </g>
  </g>
</svg>
