<svg xmlns="http://www.w3.org/2000/svg" width="80" height="80" viewBox="0 0 80 80">
  <g id="Group_1870" data-name="Group 1870" transform="translate(-2612 -4184)">
    <g id="Group_1821" data-name="Group 1821" transform="translate(-166 -974)">
      <g id="Group_1497" data-name="Group 1497" transform="translate(2507 5087)">
        <g id="Path_52700" data-name="Path 52700" transform="translate(271 71)" fill="#36c">
          <path d="M 40 78.5 C 34.80187606811523 78.5 29.76003265380859 77.48227691650391 25.01452255249023 75.47509765625 C 20.43014526367188 73.53606414794922 16.31264495849609 70.75986480712891 12.77638912200928 67.22360992431641 C 9.240133285522461 63.68735504150391 6.46393346786499 59.56985473632812 4.524899959564209 54.98547744750977 C 2.517722129821777 50.23996734619141 1.5 45.19812393188477 1.5 40 C 1.5 34.80187606811523 2.517722129821777 29.76003265380859 4.524899959564209 25.01452255249023 C 6.46393346786499 20.43014526367188 9.240133285522461 16.31264495849609 12.77638912200928 12.77638912200928 C 16.31264495849609 9.240133285522461 20.43014526367188 6.46393346786499 25.01452255249023 4.524899959564209 C 29.76003265380859 2.517722129821777 34.80187606811523 1.5 40 1.5 C 45.19812393188477 1.5 50.23996734619141 2.517722129821777 54.98547744750977 4.524899959564209 C 59.56985473632812 6.46393346786499 63.68735504150391 9.240133285522461 67.22360992431641 12.77638912200928 C 70.75986480712891 16.31264495849609 73.53606414794922 20.43014526367188 75.47509765625 25.01452255249023 C 77.48227691650391 29.76003265380859 78.5 34.80187606811523 78.5 40 C 78.5 45.19812393188477 77.48227691650391 50.23996734619141 75.47509765625 54.98547744750977 C 73.53606414794922 59.56985473632812 70.75986480712891 63.68735504150391 67.22360992431641 67.22360992431641 C 63.68735504150391 70.75986480712891 59.56985473632812 73.53606414794922 54.98547744750977 75.47509765625 C 50.23996734619141 77.48227691650391 45.19812393188477 78.5 40 78.5 Z" stroke="none"/>
          <path d="M 40 3 C 35.00370788574219 3 30.15845489501953 3.977851867675781 25.59883880615234 5.906410217285156 C 21.19326782226562 7.769813537597656 17.23602676391602 10.43806457519531 13.83704376220703 13.83704376220703 C 10.43806457519531 17.23602676391602 7.769813537597656 21.19326782226562 5.906410217285156 25.59883880615234 C 3.977851867675781 30.15845489501953 3 35.00370788574219 3 40 C 3 44.99629211425781 3.977851867675781 49.84153366088867 5.906410217285156 54.40114593505859 C 7.769813537597656 58.80672073364258 10.43806457519531 62.76396179199219 13.83704376220703 66.16294860839844 C 17.23602676391602 69.56193542480469 21.19326782226562 72.23018646240234 25.59885406494141 74.09358978271484 C 30.15846633911133 76.02214813232422 35.00370788574219 77 40 77 C 44.99629211425781 77 49.84153366088867 76.02214813232422 54.40114593505859 74.09358978271484 C 58.80672073364258 72.23018646240234 62.76396179199219 69.56193542480469 66.16294860839844 66.16294860839844 C 69.56193542480469 62.76396179199219 72.23018646240234 58.80672073364258 74.09358978271484 54.40114593505859 C 76.02214813232422 49.84153366088867 77 44.99629211425781 77 40 C 77 35.00370788574219 76.02214813232422 30.15846633911133 74.09358978271484 25.59885406494141 C 72.23018646240234 21.19326782226562 69.56193542480469 17.23602676391602 66.16294860839844 13.83704376220703 C 62.76396179199219 10.43806457519531 58.80672073364258 7.769813537597656 54.40114593505859 5.906410217285156 C 49.84153366088867 3.977851867675781 44.99629211425781 3 40 3 M 40 0 C 62.09138488769531 0 80 17.90859985351562 80 40 C 80 62.09138488769531 62.09138488769531 80 40 80 C 17.90859985351562 80 0 62.09138488769531 0 40 C 0 17.90859985351562 17.90859985351562 0 40 0 Z" stroke="none" fill="#fdfdfd"/>
        </g>
        <g id="Group_1822" data-name="Group 1822" transform="translate(284 83.71)">
          <path id="Trazado_2564_00000122716008472911981380000008845000703558451109_" d="M48.929,28.21V25.176a1.4,1.4,0,0,0-1.071-1.326c-1.682-.474-2.58-2.71-5.955-2.71-4.108,0-4.389,2.854-7,2.854-2.508,0-2.992-2.106-7.018-2.106-4.108,0-4.4,2.106-7.016,2.106-2.509,0-2.976-1.194-7-1.194A15.442,15.442,0,0,0,7.9,23.856a1.391,1.391,0,0,0-1.076,1.326v3.026C10.827,28.21,44.9,28.164,48.929,28.21Z" transform="translate(0 16.64)" fill="#fff"/>
          <g id="Grupo_814_00000140727991034445364630000002776605199792609164_" transform="translate(12.139 9.932)">
            <path id="Trazado_31_00000052080052826878230860000007156774174089401782_" d="M587.431,490.747l23.181-2.412-.861-8.279-23.181,2.412Zm18.352-8.6a2.511,2.511,0,1,1-.007,0Zm-14.9,1.551a2.553,2.553,0,1,1-.007,0Z" transform="translate(-583.258 -468.711)" fill="#fff" opacity="0.3"/>
            <path id="Trazado_32_00000034056819265656760800000007908567388715138973_" d="M610.565,476.933a2.488,2.488,0,0,0-2.524-1.428L589.827,477.4a2.5,2.5,0,0,0-2.178,1.917l-2.412,10.272,1.378,13.246a1.669,1.669,0,0,0,1.828,1.483l1.656-.172a1.67,1.67,0,0,0,1.483-1.828l-.172-1.652,19.871-2.067.172,1.656a1.669,1.669,0,0,0,1.828,1.483l1.656-.172a1.67,1.67,0,0,0,1.483-1.828l-1.378-13.246Zm-19.814,3.718,17.037-1.773,2.324,4.963L589.5,485.987Zm21.84,14.464-23.181,2.412-.861-8.279,23.181-2.412Z" transform="translate(-585.237 -475.491)" fill="#fff"/>
            <circle id="Elipse_56_00000070083498774297080680000007101063266485446320_" cx="2.497" cy="2.497" r="2.497" transform="translate(5.382 14.97)" fill="#fff"/>
            <circle id="Elipse_57_00000005967827996253088910000018150649938654120587_" cx="2.593" cy="2.593" r="2.593" transform="translate(20.19 13.324)" fill="#fff"/>
          </g>
        </g>
      </g>
    </g>
  </g>
</svg>
