<svg xmlns="http://www.w3.org/2000/svg" width="80" height="80" viewBox="0 0 80 80">
  <g id="Group_1866" data-name="Group 1866" transform="translate(-3056 -4184)">
    <g id="Path_52839" data-name="Path 52839" transform="translate(3056 4184)" fill="#36c">
      <path d="M 40 78.5 C 34.80187606811523 78.5 29.76003265380859 77.48227691650391 25.01452255249023 75.47509765625 C 20.43014526367188 73.53606414794922 16.31264495849609 70.75986480712891 12.77638912200928 67.22360992431641 C 9.240133285522461 63.68735504150391 6.46393346786499 59.56985473632812 4.524899959564209 54.98547744750977 C 2.517722129821777 50.23996734619141 1.5 45.19812393188477 1.5 40 C 1.5 34.80187606811523 2.517722129821777 29.76003265380859 4.524899959564209 25.01452255249023 C 6.46393346786499 20.43014526367188 9.240133285522461 16.31264495849609 12.77638912200928 12.77638912200928 C 16.31264495849609 9.240133285522461 20.43014526367188 6.46393346786499 25.01452255249023 4.524899959564209 C 29.76003265380859 2.517722129821777 34.80187606811523 1.5 40 1.5 C 45.19812393188477 1.5 50.23996734619141 2.517722129821777 54.98547744750977 4.524899959564209 C 59.56985473632812 6.46393346786499 63.68735504150391 9.240133285522461 67.22360992431641 12.77638912200928 C 70.75986480712891 16.31264495849609 73.53606414794922 20.43014526367188 75.47509765625 25.01452255249023 C 77.48227691650391 29.76003265380859 78.5 34.80187606811523 78.5 40 C 78.5 45.19812393188477 77.48227691650391 50.23996734619141 75.47509765625 54.98547744750977 C 73.53606414794922 59.56985473632812 70.75986480712891 63.68735504150391 67.22360992431641 67.22360992431641 C 63.68735504150391 70.75986480712891 59.56985473632812 73.53606414794922 54.98547744750977 75.47509765625 C 50.23996734619141 77.48227691650391 45.19812393188477 78.5 40 78.5 Z" stroke="none"/>
      <path d="M 40 3 C 35.00370788574219 3 30.15845489501953 3.977851867675781 25.59883880615234 5.906410217285156 C 21.19326782226562 7.769813537597656 17.23602676391602 10.43806457519531 13.83704376220703 13.83704376220703 C 10.43806457519531 17.23602676391602 7.769813537597656 21.19326782226562 5.906410217285156 25.59883880615234 C 3.977851867675781 30.15845489501953 3 35.00370788574219 3 40 C 3 44.99629211425781 3.977851867675781 49.84153366088867 5.906410217285156 54.40114593505859 C 7.769813537597656 58.80672073364258 10.43806457519531 62.76396179199219 13.83704376220703 66.16294860839844 C 17.23602676391602 69.56193542480469 21.19326782226562 72.23018646240234 25.59885406494141 74.09358978271484 C 30.15846633911133 76.02214813232422 35.00370788574219 77 40 77 C 44.99629211425781 77 49.84153366088867 76.02214813232422 54.40114593505859 74.09358978271484 C 58.80672073364258 72.23018646240234 62.76396179199219 69.56193542480469 66.16294860839844 66.16294860839844 C 69.56193542480469 62.76396179199219 72.23018646240234 58.80672073364258 74.09358978271484 54.40114593505859 C 76.02214813232422 49.84153366088867 77 44.99629211425781 77 40 C 77 35.00370788574219 76.02214813232422 30.15846633911133 74.09358978271484 25.59885406494141 C 72.23018646240234 21.19326782226562 69.56193542480469 17.23602676391602 66.16294860839844 13.83704376220703 C 62.76396179199219 10.43806457519531 58.80672073364258 7.769813537597656 54.40114593505859 5.906410217285156 C 49.84153366088867 3.977851867675781 44.99629211425781 3 40 3 M 40 0 C 62.09138488769531 0 80 17.90859985351562 80 40 C 80 62.09138488769531 62.09138488769531 80 40 80 C 17.90859985351562 80 0 62.09138488769531 0 40 C 0 17.90859985351562 17.90859985351562 0 40 0 Z" stroke="none" fill="#fdfdfd"/>
    </g>
    <g id="Grupo_494_00000080167720492862891460000014287907886955193235_" transform="translate(3424.219 3385.291)">
      <circle id="Elipse_25_00000022540403663034335300000015721402880812205697_" cx="4.392" cy="4.392" r="4.392" transform="translate(-345.746 824.945)" fill="#fdfdfd"/>
      <circle id="Elipse_26_00000031888273279129406670000000773525575366344355_" cx="4.331" cy="4.331" r="4.331" transform="translate(-337.778 818.065)" fill="#fdfdfd"/>
      <circle id="Elipse_27_00000013187009679542145390000009134970641620587170_" cx="4.331" cy="4.331" r="4.331" transform="translate(-327.383 818.065)" fill="#fdfdfd"/>
      <circle id="Elipse_28_00000150788858065698900980000002418216735390895770_" cx="4.392" cy="4.392" r="4.392" transform="translate(-319.396 824.945)" fill="#fdfdfd"/>
      <path id="Trazado_133_00000097487627817213237480000007557267761848669109_" d="M-320.959,831.592c-1.508-1.768-2.772-3.274-4.3-5.042a7.349,7.349,0,0,0-3.031-2.286,3.447,3.447,0,0,0-.572-.155,8.768,8.768,0,0,0-1.351-.07,7.315,7.315,0,0,0-1.37.087,3.571,3.571,0,0,0-.572.155,7.468,7.468,0,0,0-3.03,2.283c-1.508,1.768-2.772,3.274-4.3,5.038-2.269,2.269-5.059,4.781-4.539,8.3a5.441,5.441,0,0,0,4.037,4.02c1.264.26,5.3-.762,9.6-.762h.31c4.3,0,8.333,1.008,9.6.762a5.467,5.467,0,0,0,4.038-4.02c.536-3.534-2.252-6.046-4.522-8.316Z" transform="translate(1.96 7.021)" fill="#fdfdfd"/>
    </g>
  </g>
</svg>
