<svg xmlns="http://www.w3.org/2000/svg" width="53.114" height="53.114" viewBox="0 0 53.114 53.114">
  <g id="Group_1501" data-name="Group 1501" transform="translate(-201.943 0)">
    <g id="Group_1492" data-name="Group 1492">
      <path id="Path_2510" data-name="Path 2510" d="M25.246,4A21.2,21.2,0,0,0,8.355,38.072c3.8-4.621,13.013-6.188,16.89-6.188s13.093,1.567,16.89,6.188A21.2,21.2,0,0,0,25.246,4Zm0,23.9a9.295,9.295,0,1,1,9.295-9.295A9.271,9.271,0,0,1,25.246,27.9Z" transform="translate(203.254 1.311)" fill="#fff" opacity="0.3"/>
      <path id="Path_2511" data-name="Path 2511" d="M28.557,2A26.557,26.557,0,1,0,55.114,28.557,26.567,26.567,0,0,0,28.557,2ZM15.464,45.235c1.142-2.39,8.1-4.727,13.093-4.727s11.977,2.337,13.093,4.727a21.048,21.048,0,0,1-26.185,0Zm29.983-3.851c-3.8-4.621-13.013-6.188-16.89-6.188s-13.093,1.567-16.89,6.188a21.246,21.246,0,1,1,33.781,0ZM28.557,12.623a9.295,9.295,0,1,0,9.295,9.295A9.271,9.271,0,0,0,28.557,12.623Zm0,13.278a3.984,3.984,0,1,1,3.984-3.984A3.978,3.978,0,0,1,28.557,25.9Z" transform="translate(199.943 -2)" fill="#fff"/>
    </g>
  </g>
</svg>
