<?xml version="1.0" encoding="utf-8"?>
<!-- Generator: Adobe Illustrator 25.4.1, SVG Export Plug-In . SVG Version: 6.00 Build 0)  -->
<svg version="1.1" id="Capa_1" xmlns="http://www.w3.org/2000/svg" xmlns:xlink="http://www.w3.org/1999/xlink" x="0px" y="0px"
	 viewBox="0 0 35 35" enable-background="new 0 0 35 35" xml:space="preserve">
<g>
	<path fill="#FFFFFF" d="M15.0785,31.2153l-0.0058-0.0005c-0.0272-0.001-0.0544-0.0015-0.0819-0.002h-0.0072h-0.0072l-0.2826,0.001
		L14.34,31.1953c-3.5064-0.1851-6.7746-1.6914-9.2022-4.2427c-2.4362-2.5601-3.7779-5.917-3.7779-9.4526
		c0-1.8521,0.3625-3.6479,1.0773-5.3384C3.1279,10.5288,4.117,9.062,5.377,7.8018c1.2601-1.2598,2.727-2.249,4.36-2.9399
		c1.69-0.7148,3.4861-1.0771,5.3383-1.0771c1.8521,0,3.6482,0.3623,5.3382,1.0771c1.6331,0.6909,3.1,1.6802,4.36,2.9399
		c1.26,1.2603,2.2492,2.7271,2.9399,4.3599c0.7149,1.6904,1.0773,3.4863,1.0773,5.3384c0,1.6016-0.2745,3.1719-0.8157,4.667
		l-0.2162,0.5977l0.3193,0.5488l0.5301,0.9121l4.0315,6.9292l-8.0163,0.0264l-9.4303,0.0312h-0.007H15.179
		c-0.0275,0.0005-0.055,0.001-0.0825,0.002C15.0905,31.2148,15.0845,31.2148,15.0785,31.2153z"/>
	<path fill="#A80521" d="M15.0766,29.8545c0.028-0.001,0.0559-0.0015,0.0839-0.002l0.0281-0.0005l15.091-0.0493l-4.0157-6.9038
		l0.4324-1.1948c0.4873-1.3462,0.7344-2.7607,0.7344-4.2041c0-1.6689-0.3263-3.2871-0.9698-4.8086
		c-0.6222-1.4707-1.5134-2.7925-2.649-3.9277c-1.1356-1.1357-2.4572-2.0269-3.9282-2.6494
		c-1.5214-0.6431-3.1392-0.9697-4.8084-0.9697s-3.287,0.3267-4.8085,0.9697c-1.471,0.6226-2.7926,1.5137-3.9281,2.6494
		c-1.1356,1.1353-2.0269,2.457-2.649,3.9277C3.0463,14.2129,2.72,15.8311,2.72,17.5c0,3.1851,1.2086,6.209,3.4031,8.5151
		c2.1871,2.2983,5.1307,3.6558,8.2887,3.8223l0.3156,0.0166l0.2589-0.001h0.0141C15.0258,29.8535,15.0512,29.854,15.0766,29.8545
		 M15.0753,32.5752c-0.0317,0-0.0628-0.002-0.0946-0.002l-0.7245,0.002l0.0124-0.022C6.3178,32.1343,0,25.5552,0,17.5
		C0,9.1738,6.7494,2.4248,15.0754,2.4248c8.3258,0,15.0755,6.749,15.0755,15.0752c0,1.8018-0.3172,3.5288-0.8969,5.1299
		l0.5301,0.9121L35,32.5073l-19.8023,0.0649C15.1569,32.5728,15.1164,32.5752,15.0753,32.5752z"/>
</g>
<g id="Grupo_46_00000146484331344677520560000011758253388216672154_" transform="translate(-795.217 -194.508)">
	<g id="Grupo_45_00000038388988868280429440000003600757755934040245_" transform="translate(1171.216 616.508)">
		<path id="Trazado_140_00000160187300213548987780000005155458397290658709_" fill="#004884" d="M-356.9313-411.4095h-1.5605
			v6.1636l1.5605-1.5605V-411.4095z"/>
		
			<rect id="Rect치ngulo_48_00000084499168506879934440000001401842554488970407_" x="-367.8301" y="-411.6367" fill="#004884" width="1.3355" height="12.911"/>
		
			<rect id="Rect치ngulo_49_00000068665609150032089210000016554986097062667153_" x="-363.378" y="-411.6367" fill="#004884" width="1.7808" height="3.5615"/>
		
			<rect id="Rect치ngulo_50_00000100345800772235166640000014002255222051475364_" x="-363.378" y="-406.7397" fill="#004884" width="1.7808" height="3.1166"/>
		
			<rect id="Rect치ngulo_51_00000157996032030280038110000010730540353958190474_" x="-363.378" y="-402.2876" fill="#004884" width="1.7808" height="3.5615"/>
		<g id="Grupo_48_00000121247095750538581480000017977314559926610111_" transform="translate(21.506 19.317)">
			<path id="Trazado_100_00000124875394268224983280000014846498171534943633_" fill="#004884" d="M-377.4162-423.9889
				c-2.3005-0.0002-4.1656,1.8646-4.1658,4.1651c-0.0002,2.3005,1.8646,4.1656,4.1651,4.1658
				c2.3005,0.0002,4.1656-1.8646,4.1658-4.1651l0,0C-373.2518-422.1232-375.1161-423.9877-377.4162-423.9889z M-376.9997-422.3228
				v3.3326h-0.8332v-3.3326H-376.9997z M-376.9997-417.3241h-0.8332v-0.835h0.8332V-417.3241z"/>
		</g>
	</g>
</g>
</svg>
