<svg xmlns="http://www.w3.org/2000/svg" width="80" height="80" viewBox="0 0 80 80">
  <g id="Group_1856" data-name="Group 1856" transform="translate(-4082 -4184)">
    <g id="Group_1850" data-name="Group 1850" transform="translate(206)">
      <g id="Path_52872" data-name="Path 52872" transform="translate(3876 4184)" fill="#36c">
        <path d="M 40 78.5 C 34.80187606811523 78.5 29.76003265380859 77.48227691650391 25.01452255249023 75.47509765625 C 20.43014526367188 73.53606414794922 16.31264495849609 70.75986480712891 12.77638912200928 67.22360992431641 C 9.240133285522461 63.68735504150391 6.46393346786499 59.56985473632812 4.524899959564209 54.98547744750977 C 2.517722129821777 50.23996734619141 1.5 45.19812393188477 1.5 40 C 1.5 34.80187606811523 2.517722129821777 29.76003265380859 4.524899959564209 25.01452255249023 C 6.46393346786499 20.43014526367188 9.240133285522461 16.31264495849609 12.77638912200928 12.77638912200928 C 16.31264495849609 9.240133285522461 20.43014526367188 6.46393346786499 25.01452255249023 4.524899959564209 C 29.76003265380859 2.517722129821777 34.80187606811523 1.5 40 1.5 C 45.19812393188477 1.5 50.23996734619141 2.517722129821777 54.98547744750977 4.524899959564209 C 59.56985473632812 6.46393346786499 63.68735504150391 9.240133285522461 67.22360992431641 12.77638912200928 C 70.75986480712891 16.31264495849609 73.53606414794922 20.43014526367188 75.47509765625 25.01452255249023 C 77.48227691650391 29.76003265380859 78.5 34.80187606811523 78.5 40 C 78.5 45.19812393188477 77.48227691650391 50.23996734619141 75.47509765625 54.98547744750977 C 73.53606414794922 59.56985473632812 70.75986480712891 63.68735504150391 67.22360992431641 67.22360992431641 C 63.68735504150391 70.75986480712891 59.56985473632812 73.53606414794922 54.98547744750977 75.47509765625 C 50.23996734619141 77.48227691650391 45.19812393188477 78.5 40 78.5 Z" stroke="none"/>
        <path d="M 40 3 C 35.00370788574219 3 30.15845489501953 3.977851867675781 25.59883880615234 5.906410217285156 C 21.19326782226562 7.769813537597656 17.23602676391602 10.43806457519531 13.83704376220703 13.83704376220703 C 10.43806457519531 17.23602676391602 7.769813537597656 21.19326782226562 5.906410217285156 25.59883880615234 C 3.977851867675781 30.15845489501953 3 35.00370788574219 3 40 C 3 44.99629211425781 3.977851867675781 49.84153366088867 5.906410217285156 54.40114593505859 C 7.769813537597656 58.80672073364258 10.43806457519531 62.76396179199219 13.83704376220703 66.16294860839844 C 17.23602676391602 69.56193542480469 21.19326782226562 72.23018646240234 25.59885406494141 74.09358978271484 C 30.15846633911133 76.02214813232422 35.00370788574219 77 40 77 C 44.99629211425781 77 49.84153366088867 76.02214813232422 54.40114593505859 74.09358978271484 C 58.80672073364258 72.23018646240234 62.76396179199219 69.56193542480469 66.16294860839844 66.16294860839844 C 69.56193542480469 62.76396179199219 72.23018646240234 58.80672073364258 74.09358978271484 54.40114593505859 C 76.02214813232422 49.84153366088867 77 44.99629211425781 77 40 C 77 35.00370788574219 76.02214813232422 30.15846633911133 74.09358978271484 25.59885406494141 C 72.23018646240234 21.19326782226562 69.56193542480469 17.23602676391602 66.16294860839844 13.83704376220703 C 62.76396179199219 10.43806457519531 58.80672073364258 7.769813537597656 54.40114593505859 5.906410217285156 C 49.84153366088867 3.977851867675781 44.99629211425781 3 40 3 M 40 0 C 62.09138488769531 0 80 17.90859985351562 80 40 C 80 62.09138488769531 62.09138488769531 80 40 80 C 17.90859985351562 80 0 62.09138488769531 0 40 C 0 17.90859985351562 17.90859985351562 0 40 0 Z" stroke="none" fill="#fdfdfd"/>
      </g>
    </g>
    <g id="Group_1851" data-name="Group 1851" transform="translate(4098.521 4194.007)">
      <path id="Trazado_140_00000060012187192953581610000014471675525226830483_" d="M21.125,10.267H17.35V25.18L21.125,21.4Z" transform="translate(13.338)" fill="#fdfdfd"/>
      <rect id="Rect치ngulo_48_00000041256706818012540380000008948529258522033579_" width="3.231" height="31.238" transform="translate(8.094 10.267)" fill="#fdfdfd"/>
      <rect id="Rect치ngulo_49_00000043419455051025708250000017035326325054956720_" width="4.309" height="8.617" transform="translate(18.865 10.267)" fill="#fdfdfd"/>
      <rect id="Rect치ngulo_50_00000058575429636566965910000010325844576459906205_" width="4.309" height="7.541" transform="translate(18.865 22.115)" fill="#fdfdfd"/>
      <rect id="Rect치ngulo_51_00000168827698897737196420000014506057970498824626_" width="4.309" height="8.617" transform="translate(18.865 32.887)" fill="#fdfdfd"/>
      <path id="Path_52875" data-name="Path 52875" d="M32.51,19.876l-2.855.965A7.188,7.188,0,0,0,27.528,19.6l-.591-2.934H23L22.408,19.6a7.178,7.178,0,0,0-2.127,1.241l-2.855-.965-1.969,3.407L17.7,25.252a8.544,8.544,0,0,0-.118,1.241,8.547,8.547,0,0,0,.118,1.241L15.456,29.7l1.969,3.407,2.855-.965a7.188,7.188,0,0,0,2.127,1.241L23,36.359h3.938l.591-2.934a7.178,7.178,0,0,0,2.127-1.241l2.855.965,1.969-3.407-2.245-1.969a8.544,8.544,0,0,0,.118-1.241,8.547,8.547,0,0,0-.118-1.241l2.245-1.969ZM24.968,30.451a3.938,3.938,0,1,1,3.938-3.938A3.95,3.95,0,0,1,24.968,30.451Z" transform="translate(10.609 9.22)" fill="#fdfdfd"/>
    </g>
  </g>
</svg>
