<?xml version="1.0" encoding="utf-8"?>
<!-- Generator: Adobe Illustrator 25.4.1, SVG Export Plug-In . SVG Version: 6.00 Build 0)  -->
<svg version="1.1" id="Capa_1" xmlns="http://www.w3.org/2000/svg" xmlns:xlink="http://www.w3.org/1999/xlink" x="0px" y="0px"
	 viewBox="0 0 35 35" enable-background="new 0 0 35 35" xml:space="preserve">
<g id="Grupo_809" transform="translate(-775.34 -253.57)">
	
		<rect id="Rectángulo_217" x="779.1228" y="275.2747" opacity="0.3" fill="#004884" enable-background="new    " width="10.447" height="7.4095"/>
	<path id="Trazado_1516" fill="#004884" d="M792.4296,258.2083h-15.8613c-0.3181-0.0013-0.5771,0.2555-0.5784,0.5736
		c0,0.0016,0,0.0032,0,0.0048v1.8843c-0.0043,0.3151,0.2477,0.5741,0.5628,0.5783c0.0032,0.0001,0.0064,0.0001,0.0096,0.0001h0.5724
		v22.6805h14.6508v-22.6811h0.6362c0.3181,0.0049,0.58-0.249,0.5849-0.567c0.0001-0.0018,0.0001-0.0036,0.0001-0.0054v-1.8903
		C793.0054,258.4678,792.7479,258.21,792.4296,258.2083z M789.3504,282.0713h-9.7792v-5.9915h9.7792V282.0713z M789.3695,274.016
		h-3.0411v-1.7292c-0.0016-0.7779-0.6299-1.4092-1.4078-1.4144h-0.765c-0.7779,0.0016-1.4091,0.6299-1.4144,1.4078v1.7358h-3.1436
		v-10.3499h9.7714L789.3695,274.016z M809.2337,260.4003l-0.0513-0.0513c-0.6083-0.6042-1.5902-0.6042-2.1985,0l-13.0588,13.0588
		c-0.8202,0.1879-1.4001,0.92-1.3953,1.7614v8.7625h3.7029v-8.3338l12.9991-12.9991c0.6078-0.6031,0.6115-1.5848,0.0084-2.1925
		c-0.002-0.002-0.004-0.004-0.006-0.006L809.2337,260.4003z"/>
</g>
</svg>
