<?xml version="1.0" encoding="utf-8"?>
<!-- Generator: Adobe Illustrator 25.4.1, SVG Export Plug-In . SVG Version: 6.00 Build 0)  -->
<svg version="1.1" id="Capa_1" xmlns="http://www.w3.org/2000/svg" xmlns:xlink="http://www.w3.org/1999/xlink" x="0px" y="0px"
	 viewBox="0 0 35 35" enable-background="new 0 0 35 35" xml:space="preserve">
<g id="Grupo_1943" transform="translate(-6297 2544)">
	<rect id="Rectángulo_1158" x="6297" y="-2543.8865" fill="none" width="35" height="35"/>
	<g id="Grupo_1942" transform="translate(-3.473 -43.913)">
		<g id="Grupo_1941" transform="translate(5802 -2892.535)">
			<g id="manifestacion_0" transform="translate(501 396.712)">
				<g id="Grupo_51" transform="translate(0 0)">
					<path id="Trazado_163" fill="#FFFFFF" stroke="#A80420" stroke-width="2.8" stroke-miterlimit="10" d="M26.6576,27.2289H3.2878
						c-2.3663-0.0005-4.284-1.9192-4.2835-4.2855c0.0002-0.7522,0.1984-1.4911,0.5747-2.1425l11.684-20.236
						c1.1839-2.0488,3.8045-2.75,5.8533-1.5661c0.6503,0.3758,1.1904,0.9158,1.5661,1.5661l11.6852,20.236
						c1.1825,2.0496,0.4795,4.6697-1.5701,5.8522c-0.6507,0.3754-1.3887,0.5731-2.1399,0.5733V27.2289z"/>
				</g>
			</g>
		</g>
		<g id="center_focus_strong_black_24dp" transform="translate(6316 -2481)">
			<path id="Trazado_77980_00000091007818412960165010000013462723130391272871_" fill="none" d="M-6.1573-7.4554h16.8966V9.4412
				H-6.1573V-7.4554z"/>
			
				<circle id="Elipse_200_00000022542871059177308690000014478383534126317230_" opacity="0.3" fill="#004884" enable-background="new    " cx="2.291" cy="0.9929" r="2.4138"/>
			<path id="Trazado_77981_00000066489462945240253450000014352098859485956543_" fill="#004884" d="M-1.3967,0.9929
				c0,2.0366,1.651,3.6877,3.6877,3.6877s3.6877-1.651,3.6877-3.6877S4.3277-2.6948,2.291-2.6948l0,0
				C0.2546-2.6941-1.396-1.0435-1.3967,0.9929z M4.5039,0.9929c0,1.2221-0.9907,2.2128-2.2128,2.2128S0.0782,2.215,0.0782,0.9929
				c0-1.2221,0.9907-2.2128,2.2128-2.2128c0,0,0,0,0,0C3.5118-1.2166,4.5005-0.2279,4.5039,0.9929z M-4.3469,6.156
				c0.0026,0.8134,0.6614,1.4722,1.4748,1.4748h2.9503V6.156h-2.9503V3.2057h-1.4748V6.156z M-4.3469-4.1702V-1.22h1.4748v-2.9503
				h2.9503V-5.645h-2.9503C-3.6855-5.6424-4.3443-4.9836-4.3469-4.1702z M8.9289-4.1702C8.9263-4.9836,8.2675-5.6424,7.4541-5.645
				H4.5039v1.4748h2.9503V-1.22h1.4748V-4.1702z M7.4541,6.156H4.5039v1.4748h2.9503C8.2675,7.6282,8.9263,6.9694,8.9289,6.156
				V3.2057H7.4541V6.156z"/>
		</g>
	</g>
</g>
</svg>
