<svg xmlns="http://www.w3.org/2000/svg" width="80" height="80" viewBox="0 0 80 80">
  <g id="Group_1500" data-name="Group 1500" transform="translate(-2778 -5158)">
    <g id="Group_1497" data-name="Group 1497" transform="translate(2507 5087)">
      <g id="Path_52700" data-name="Path 52700" transform="translate(271 71)" fill="#36c">
        <path d="M 40 78.5 C 34.80187606811523 78.5 29.76003265380859 77.48227691650391 25.01452255249023 75.47509765625 C 20.43014526367188 73.53606414794922 16.31264495849609 70.75986480712891 12.77638912200928 67.22360992431641 C 9.240133285522461 63.68735504150391 6.46393346786499 59.56985473632812 4.524899959564209 54.98547744750977 C 2.517722129821777 50.23996734619141 1.5 45.19812393188477 1.5 40 C 1.5 34.80187606811523 2.517722129821777 29.76003265380859 4.524899959564209 25.01452255249023 C 6.46393346786499 20.43014526367188 9.240133285522461 16.31264495849609 12.77638912200928 12.77638912200928 C 16.31264495849609 9.240133285522461 20.43014526367188 6.46393346786499 25.01452255249023 4.524899959564209 C 29.76003265380859 2.517722129821777 34.80187606811523 1.5 40 1.5 C 45.19812393188477 1.5 50.23996734619141 2.517722129821777 54.98547744750977 4.524899959564209 C 59.56985473632812 6.46393346786499 63.68735504150391 9.240133285522461 67.22360992431641 12.77638912200928 C 70.75986480712891 16.31264495849609 73.53606414794922 20.43014526367188 75.47509765625 25.01452255249023 C 77.48227691650391 29.76003265380859 78.5 34.80187606811523 78.5 40 C 78.5 45.19812393188477 77.48227691650391 50.23996734619141 75.47509765625 54.98547744750977 C 73.53606414794922 59.56985473632812 70.75986480712891 63.68735504150391 67.22360992431641 67.22360992431641 C 63.68735504150391 70.75986480712891 59.56985473632812 73.53606414794922 54.98547744750977 75.47509765625 C 50.23996734619141 77.48227691650391 45.19812393188477 78.5 40 78.5 Z" stroke="none"/>
        <path d="M 40 3 C 35.00370788574219 3 30.15845489501953 3.977851867675781 25.59883880615234 5.906410217285156 C 21.19326782226562 7.769813537597656 17.23602676391602 10.43806457519531 13.83704376220703 13.83704376220703 C 10.43806457519531 17.23602676391602 7.769813537597656 21.19326782226562 5.906410217285156 25.59883880615234 C 3.977851867675781 30.15845489501953 3 35.00370788574219 3 40 C 3 44.99629211425781 3.977851867675781 49.84153366088867 5.906410217285156 54.40114593505859 C 7.769813537597656 58.80672073364258 10.43806457519531 62.76396179199219 13.83704376220703 66.16294860839844 C 17.23602676391602 69.56193542480469 21.19326782226562 72.23018646240234 25.59885406494141 74.09358978271484 C 30.15846633911133 76.02214813232422 35.00370788574219 77 40 77 C 44.99629211425781 77 49.84153366088867 76.02214813232422 54.40114593505859 74.09358978271484 C 58.80672073364258 72.23018646240234 62.76396179199219 69.56193542480469 66.16294860839844 66.16294860839844 C 69.56193542480469 62.76396179199219 72.23018646240234 58.80672073364258 74.09358978271484 54.40114593505859 C 76.02214813232422 49.84153366088867 77 44.99629211425781 77 40 C 77 35.00370788574219 76.02214813232422 30.15846633911133 74.09358978271484 25.59885406494141 C 72.23018646240234 21.19326782226562 69.56193542480469 17.23602676391602 66.16294860839844 13.83704376220703 C 62.76396179199219 10.43806457519531 58.80672073364258 7.769813537597656 54.40114593505859 5.906410217285156 C 49.84153366088867 3.977851867675781 44.99629211425781 3 40 3 M 40 0 C 62.09138488769531 0 80 17.90859985351562 80 40 C 80 62.09138488769531 62.09138488769531 80 40 80 C 17.90859985351562 80 0 62.09138488769531 0 40 C 0 17.90859985351562 17.90859985351562 0 40 0 Z" stroke="none" fill="#fdfdfd"/>
      </g>
      <g id="icono-controlvelocidad" transform="translate(291.491 90.475)">
        <path id="Trazado_77980_00000116915002793291755210000011129522735504640935_" d="M1.315,1.3H39.77V39.752H1.315Z" transform="translate(0 0)" fill="none"/>
        <g id="Group_1499" data-name="Group 1499" transform="translate(3.304 3.287)">
          <circle id="Elipse_200_00000028309455286410665670000014134424595941263001_" cx="5.967" cy="5.967" r="5.967" transform="translate(11.271 11.271)" fill="#fff" opacity="0.3"/>
          <path id="Trazado_77981_00000161596389346113382510000007815198641627441538_" d="M10.652,20.211a9.577,9.577,0,1,0,9.577-9.577h0A9.581,9.581,0,0,0,10.652,20.211Zm15.323,0a5.746,5.746,0,1,1-5.746-5.746A5.746,5.746,0,0,1,25.975,20.211ZM2.99,33.619a3.845,3.845,0,0,0,3.831,3.831h7.661V33.619H6.821V25.958H2.99ZM2.99,6.8v7.661H6.821V6.8h7.661V2.973H6.821A3.845,3.845,0,0,0,2.99,6.8Zm34.476,0a3.845,3.845,0,0,0-3.831-3.831H25.975V6.8h7.661v7.661h3.831ZM33.636,33.619H25.975v3.831h7.661a3.845,3.845,0,0,0,3.831-3.831V25.958H33.636Z" transform="translate(-2.99 -2.973)" fill="#fff"/>
        </g>
      </g>
    </g>
  </g>
</svg>
