<svg xmlns="http://www.w3.org/2000/svg" width="80" height="80" viewBox="0 0 80 80">
  <g id="Group_1871" data-name="Group 1871" transform="translate(-2501 -4184)">
    <g id="Group_1820" data-name="Group 1820" transform="translate(-277 -974)">
      <g id="Group_1497" data-name="Group 1497" transform="translate(2507 5087)">
        <g id="Path_52700" data-name="Path 52700" transform="translate(271 71)" fill="#36c">
          <path d="M 40 78.5 C 34.80187606811523 78.5 29.76003265380859 77.48227691650391 25.01452255249023 75.47509765625 C 20.43014526367188 73.53606414794922 16.31264495849609 70.75986480712891 12.77638912200928 67.22360992431641 C 9.240133285522461 63.68735504150391 6.46393346786499 59.56985473632812 4.524899959564209 54.98547744750977 C 2.517722129821777 50.23996734619141 1.5 45.19812393188477 1.5 40 C 1.5 34.80187606811523 2.517722129821777 29.76003265380859 4.524899959564209 25.01452255249023 C 6.46393346786499 20.43014526367188 9.240133285522461 16.31264495849609 12.77638912200928 12.77638912200928 C 16.31264495849609 9.240133285522461 20.43014526367188 6.46393346786499 25.01452255249023 4.524899959564209 C 29.76003265380859 2.517722129821777 34.80187606811523 1.5 40 1.5 C 45.19812393188477 1.5 50.23996734619141 2.517722129821777 54.98547744750977 4.524899959564209 C 59.56985473632812 6.46393346786499 63.68735504150391 9.240133285522461 67.22360992431641 12.77638912200928 C 70.75986480712891 16.31264495849609 73.53606414794922 20.43014526367188 75.47509765625 25.01452255249023 C 77.48227691650391 29.76003265380859 78.5 34.80187606811523 78.5 40 C 78.5 45.19812393188477 77.48227691650391 50.23996734619141 75.47509765625 54.98547744750977 C 73.53606414794922 59.56985473632812 70.75986480712891 63.68735504150391 67.22360992431641 67.22360992431641 C 63.68735504150391 70.75986480712891 59.56985473632812 73.53606414794922 54.98547744750977 75.47509765625 C 50.23996734619141 77.48227691650391 45.19812393188477 78.5 40 78.5 Z" stroke="none"/>
          <path d="M 40 3 C 35.00370788574219 3 30.15845489501953 3.977851867675781 25.59883880615234 5.906410217285156 C 21.19326782226562 7.769813537597656 17.23602676391602 10.43806457519531 13.83704376220703 13.83704376220703 C 10.43806457519531 17.23602676391602 7.769813537597656 21.19326782226562 5.906410217285156 25.59883880615234 C 3.977851867675781 30.15845489501953 3 35.00370788574219 3 40 C 3 44.99629211425781 3.977851867675781 49.84153366088867 5.906410217285156 54.40114593505859 C 7.769813537597656 58.80672073364258 10.43806457519531 62.76396179199219 13.83704376220703 66.16294860839844 C 17.23602676391602 69.56193542480469 21.19326782226562 72.23018646240234 25.59885406494141 74.09358978271484 C 30.15846633911133 76.02214813232422 35.00370788574219 77 40 77 C 44.99629211425781 77 49.84153366088867 76.02214813232422 54.40114593505859 74.09358978271484 C 58.80672073364258 72.23018646240234 62.76396179199219 69.56193542480469 66.16294860839844 66.16294860839844 C 69.56193542480469 62.76396179199219 72.23018646240234 58.80672073364258 74.09358978271484 54.40114593505859 C 76.02214813232422 49.84153366088867 77 44.99629211425781 77 40 C 77 35.00370788574219 76.02214813232422 30.15846633911133 74.09358978271484 25.59885406494141 C 72.23018646240234 21.19326782226562 69.56193542480469 17.23602676391602 66.16294860839844 13.83704376220703 C 62.76396179199219 10.43806457519531 58.80672073364258 7.769813537597656 54.40114593505859 5.906410217285156 C 49.84153366088867 3.977851867675781 44.99629211425781 3 40 3 M 40 0 C 62.09138488769531 0 80 17.90859985351562 80 40 C 80 62.09138488769531 62.09138488769531 80 40 80 C 17.90859985351562 80 0 62.09138488769531 0 40 C 0 17.90859985351562 17.90859985351562 0 40 0 Z" stroke="none" fill="#fdfdfd"/>
        </g>
        <g id="icono-carretera-clima" transform="translate(283.781 83.698)">
          <g id="Group_1819" data-name="Group 1819" transform="translate(7.846 10.781)">
            <rect id="Rectangle_981" data-name="Rectangle 981" width="26.252" height="10.942" transform="translate(6.244 13.139)" fill="#fff" opacity="0.3"/>
            <circle id="Elipse_1_00000162323220639814024490000003800081871958130086_" cx="2.815" cy="2.815" r="2.815" transform="translate(8.116 15.01)" fill="#fff"/>
            <circle id="Elipse_2_00000095330655367834921580000007923705897522607283_" cx="2.922" cy="2.922" r="2.922" transform="translate(24.899 14.902)" fill="#fff"/>
            <path id="Trazado_2565_00000031166312162075696750000006979391121774865323_" d="M14.345,23.189c2.307,0,2.758,2.016,6.456,2.016,3.78,0,4.052-2.016,6.456-2.016,2.307,0,2.757,2.016,6.457,2.016,3.78,0,4.051-2.016,6.456-2.016,2.307,0,2.714,1.976,6.417,2.016V21.172c-2.307,0-2.758-2.016-6.456-2.016-3.78,0-4.051,2.016-6.456,2.016-2.307,0-2.758-2.016-6.457-2.016-3.78,0-4.051,2.016-6.456,2.016-2.307,0-2.757-2.016-6.456-2.016-3.78,0-4.052,2.016-6.456,2.016V25.2C11.533,25.2,12.057,23.189,14.345,23.189Z" transform="translate(-7.841 2.169)" fill="#fff"/>
            <g id="Group_1818" data-name="Group 1818" transform="translate(2.493)">
              <path id="Path_52828" data-name="Path 52828" d="M12.576,32.114V23.921H38.845v8.194a6.858,6.858,0,0,1,3.748,1.132V23.914l-3.9-11.238a2.8,2.8,0,0,0-2.663-1.894H15.392a2.823,2.823,0,0,0-2.665,1.894l-3.9,11.238v9.339A6.636,6.636,0,0,1,12.576,32.114Zm3.472-17.579H35.355l2.027,5.835H14.019Z" transform="translate(-8.825 -10.781)" fill="#fff"/>
            </g>
            <path id="Trazado_2565_00000044856351171999196970000004622677768642820798_" d="M14.341,25.415c2.307,0,2.758,2.016,6.456,2.016,3.78,0,4.052-2.016,6.456-2.016,2.307,0,2.758,2.016,6.457,2.016,3.78,0,4.051-2.016,6.456-2.016,2.307,0,2.714,1.976,6.417,2.016V23.4c-2.307,0-2.757-2.016-6.456-2.016-3.78,0-4.051,2.016-6.456,2.016-2.307,0-2.758-2.016-6.457-2.016-3.78,0-4.051,2.016-6.456,2.016-2.307,0-2.757-2.016-6.456-2.016-3.78,0-4.052,2.016-6.456,2.016v4.032C11.53,27.431,12.054,25.415,14.341,25.415Z" transform="translate(-7.846 5.611)" fill="#fff"/>
          </g>
        </g>
      </g>
    </g>
  </g>
</svg>
