<?xml version="1.0" encoding="utf-8"?>
<!-- Generator: Adobe Illustrator 25.4.1, SVG Export Plug-In . SVG Version: 6.00 Build 0)  -->
<svg version="1.1" id="Capa_1" xmlns="http://www.w3.org/2000/svg" xmlns:xlink="http://www.w3.org/1999/xlink" x="0px" y="0px"
	 viewBox="0 0 35 35" enable-background="new 0 0 35 35" xml:space="preserve">
<path id="Rectángulo_816_00000160173917478717610820000017291433926170705044_" fill="#004884" d="M7.3057,1.9149h20.3885
	c2.9773,0,5.3908,2.4136,5.3908,5.3908v20.3885c0,2.9773-2.4136,5.3908-5.3908,5.3908H7.3057c-2.9773,0-5.3908-2.4136-5.3908-5.3908
	V7.3057C1.9149,4.3285,4.3285,1.9149,7.3057,1.9149z"/>
<g id="Grupo_809" transform="translate(-775.34 -253.57)">
	
		<rect id="Rectángulo_217" x="783.8668" y="273.9184" opacity="0.3" fill="#FFFFFF" enable-background="new    " width="7.077" height="5.0193"/>
	<path id="Trazado_1516" fill="#FFFFFF" d="M792.8812,262.3572h-10.7448c-0.2155-0.0009-0.3909,0.1731-0.3918,0.3886
		c0,0.0011,0,0.0021,0,0.0032v1.2765c-0.0029,0.2135,0.1678,0.3889,0.3813,0.3918c0.0021,0,0.0043,0.0001,0.0065,0h0.3878v15.3642
		h9.9247v-15.3646h0.431c0.2155,0.0033,0.3929-0.1686,0.3962-0.3841c0.0001-0.0013,0.0001-0.0025,0.0001-0.0037v-1.2805
		C793.2712,262.533,793.0968,262.3584,792.8812,262.3572z M790.7952,278.5225h-6.6246v-4.0588h6.6246V278.5225z M790.8082,273.0657
		h-2.0601v-1.1714c-0.0011-0.527-0.4268-0.9546-0.9537-0.9582h-0.5182c-0.527,0.0011-0.9546,0.4267-0.9581,0.9537v1.1759h-2.1296
		v-7.0112h6.6193L790.8082,273.0657z M804.2646,263.8421l-0.0348-0.0347c-0.412-0.4093-1.0773-0.4093-1.4893,0l-8.8463,8.8463
		c-0.5556,0.1273-0.9485,0.6232-0.9452,1.1932v5.9359h2.5084v-5.6455l8.8058-8.8058c0.4117-0.4086,0.4142-1.0735,0.0057-1.4853
		c-0.0013-0.0014-0.0027-0.0027-0.0041-0.0041H804.2646z"/>
</g>
</svg>
