<?xml version="1.0" encoding="utf-8"?>
<!-- Generator: Adobe Illustrator 25.4.1, SVG Export Plug-In . SVG Version: 6.00 Build 0)  -->
<svg version="1.1" id="Capa_1" xmlns="http://www.w3.org/2000/svg" xmlns:xlink="http://www.w3.org/1999/xlink" x="0px" y="0px"
	 viewBox="0 0 35 35" enable-background="new 0 0 35 35" xml:space="preserve">
<g>
	<path fill="#FFFFFF" d="M15.0785,31.2153l-0.0058-0.0005c-0.0272-0.001-0.0544-0.0015-0.0819-0.002h-0.0072h-0.0072l-0.2826,0.001
		L14.34,31.1953c-3.5064-0.1851-6.7746-1.6914-9.2022-4.2427c-2.4362-2.5601-3.7779-5.917-3.7779-9.4526
		c0-1.8521,0.3625-3.6479,1.0773-5.3384C3.1279,10.5288,4.117,9.062,5.377,7.8018c1.2601-1.2598,2.727-2.249,4.36-2.9399
		c1.69-0.7148,3.4861-1.0771,5.3383-1.0771c1.8521,0,3.6482,0.3623,5.3382,1.0771c1.6331,0.6909,3.1,1.6802,4.36,2.9399
		c1.26,1.2603,2.2492,2.7271,2.9399,4.3599c0.7149,1.6904,1.0773,3.4863,1.0773,5.3384c0,1.6016-0.2745,3.1719-0.8157,4.667
		l-0.2162,0.5977l0.3193,0.5488l0.5301,0.9121l4.0315,6.9292l-8.0163,0.0264l-9.4303,0.0312h-0.007H15.179
		c-0.0275,0.0005-0.055,0.001-0.0825,0.002C15.0905,31.2148,15.0845,31.2148,15.0785,31.2153z"/>
	<path fill="#A80521" d="M15.0766,29.8545c0.028-0.001,0.0559-0.0015,0.0839-0.002l0.0281-0.0005l15.091-0.0493l-4.0157-6.9038
		l0.4324-1.1948c0.4873-1.3462,0.7344-2.7607,0.7344-4.2041c0-1.6689-0.3263-3.2871-0.9698-4.8086
		c-0.6222-1.4707-1.5134-2.7925-2.649-3.9277c-1.1356-1.1357-2.4572-2.0269-3.9282-2.6494
		c-1.5214-0.6431-3.1392-0.9697-4.8084-0.9697s-3.287,0.3267-4.8085,0.9697c-1.471,0.6226-2.7926,1.5137-3.9281,2.6494
		c-1.1356,1.1353-2.0269,2.457-2.649,3.9277C3.0463,14.2129,2.72,15.8311,2.72,17.5c0,3.1851,1.2086,6.209,3.4031,8.5151
		c2.1871,2.2983,5.1307,3.6558,8.2887,3.8223l0.3156,0.0166l0.2589-0.001h0.0141C15.0258,29.8535,15.0512,29.854,15.0766,29.8545
		 M15.0753,32.5752c-0.0317,0-0.0628-0.002-0.0946-0.002l-0.7245,0.002l0.0124-0.022C6.3178,32.1343,0,25.5552,0,17.5
		C0,9.1738,6.7494,2.4248,15.0754,2.4248c8.3258,0,15.0755,6.749,15.0755,15.0752c0,1.8018-0.3172,3.5288-0.8969,5.1299
		l0.5301,0.9121L35,32.5073l-19.8023,0.0649C15.1569,32.5728,15.1164,32.5752,15.0753,32.5752z"/>
</g>
<g>
	<path id="Trazado_140_00000091704463957165777840000006514469501766116027_" fill="#004884" d="M22.2551,10.5044l-1.7703-0.3625
		l-1.4319,6.9926l2.1329-1.4078L22.2551,10.5044z"/>
	<path id="Trazado_140_00000176749411241036786810000016570118169001031817_" fill="#004884" d="M20.5154,25.3115l1.7686-0.371
		l-1.4655-6.9856l-1.3976,2.1396L20.5154,25.3115z"/>
	
		<rect id="Rect치ngulo_48_00000029012921413249576500000001562044596402932130_" x="8.9363" y="10.2506" fill="#004884" width="1.5465" height="14.9514"/>
	
		<rect id="Rect치ngulo_49_00000137123706531072153990000000890788664860563643_" x="14.092" y="10.2506" fill="#004884" width="2.0622" height="4.1244"/>
	
		<rect id="Rect치ngulo_50_00000121974568775871071040000002830302162603916440_" x="13.3186" y="16.695" transform="matrix(0.2618 -0.9651 0.9651 0.2618 -5.9441 27.6808)" fill="#004884" width="3.6092" height="2.0622"/>
	
		<rect id="Rect치ngulo_51_00000048477939124560109660000003154560198854647735_" x="14.092" y="21.0772" fill="#004884" width="2.0622" height="4.1244"/>
</g>
</svg>
