<svg xmlns="http://www.w3.org/2000/svg" width="80" height="80" viewBox="0 0 80 80">
  <g id="Group_1441" data-name="Group 1441" transform="translate(-271 -71)">
    <g id="Path_52700" data-name="Path 52700" transform="translate(271 71)" fill="#36c">
      <path d="M 40 78.5 C 34.80187606811523 78.5 29.76003265380859 77.48227691650391 25.01452255249023 75.47509765625 C 20.43014526367188 73.53606414794922 16.31264495849609 70.75986480712891 12.77638912200928 67.22360992431641 C 9.240133285522461 63.68735504150391 6.46393346786499 59.56985473632812 4.524899959564209 54.98547744750977 C 2.517722129821777 50.23996734619141 1.5 45.19812393188477 1.5 40 C 1.5 34.80187606811523 2.517722129821777 29.76003265380859 4.524899959564209 25.01452255249023 C 6.46393346786499 20.43014526367188 9.240133285522461 16.31264495849609 12.77638912200928 12.77638912200928 C 16.31264495849609 9.240133285522461 20.43014526367188 6.46393346786499 25.01452255249023 4.524899959564209 C 29.76003265380859 2.517722129821777 34.80187606811523 1.5 40 1.5 C 45.19812393188477 1.5 50.23996734619141 2.517722129821777 54.98547744750977 4.524899959564209 C 59.56985473632812 6.46393346786499 63.68735504150391 9.240133285522461 67.22360992431641 12.77638912200928 C 70.75986480712891 16.31264495849609 73.53606414794922 20.43014526367188 75.47509765625 25.01452255249023 C 77.48227691650391 29.76003265380859 78.5 34.80187606811523 78.5 40 C 78.5 45.19812393188477 77.48227691650391 50.23996734619141 75.47509765625 54.98547744750977 C 73.53606414794922 59.56985473632812 70.75986480712891 63.68735504150391 67.22360992431641 67.22360992431641 C 63.68735504150391 70.75986480712891 59.56985473632812 73.53606414794922 54.98547744750977 75.47509765625 C 50.23996734619141 77.48227691650391 45.19812393188477 78.5 40 78.5 Z" stroke="none"/>
      <path d="M 40 3 C 35.00370788574219 3 30.15845489501953 3.977851867675781 25.59883880615234 5.906410217285156 C 21.19326782226562 7.769813537597656 17.23602676391602 10.43806457519531 13.83704376220703 13.83704376220703 C 10.43806457519531 17.23602676391602 7.769813537597656 21.19326782226562 5.906410217285156 25.59883880615234 C 3.977851867675781 30.15845489501953 3 35.00370788574219 3 40 C 3 44.99629211425781 3.977851867675781 49.84153366088867 5.906410217285156 54.40114593505859 C 7.769813537597656 58.80672073364258 10.43806457519531 62.76396179199219 13.83704376220703 66.16294860839844 C 17.23602676391602 69.56193542480469 21.19326782226562 72.23018646240234 25.59885406494141 74.09358978271484 C 30.15846633911133 76.02214813232422 35.00370788574219 77 40 77 C 44.99629211425781 77 49.84153366088867 76.02214813232422 54.40114593505859 74.09358978271484 C 58.80672073364258 72.23018646240234 62.76396179199219 69.56193542480469 66.16294860839844 66.16294860839844 C 69.56193542480469 62.76396179199219 72.23018646240234 58.80672073364258 74.09358978271484 54.40114593505859 C 76.02214813232422 49.84153366088867 77 44.99629211425781 77 40 C 77 35.00370788574219 76.02214813232422 30.15846633911133 74.09358978271484 25.59885406494141 C 72.23018646240234 21.19326782226562 69.56193542480469 17.23602676391602 66.16294860839844 13.83704376220703 C 62.76396179199219 10.43806457519531 58.80672073364258 7.769813537597656 54.40114593505859 5.906410217285156 C 49.84153366088867 3.977851867675781 44.99629211425781 3 40 3 M 40 0 C 62.09138488769531 0 80 17.90859985351562 80 40 C 80 62.09138488769531 62.09138488769531 80 40 80 C 17.90859985351562 80 0 62.09138488769531 0 40 C 0 17.90859985351562 17.90859985351562 0 40 0 Z" stroke="none" fill="#fdfdfd"/>
    </g>
    <g id="Grupo_485" data-name="Grupo 485" transform="translate(288 93)">
      <path id="Trazado_31" data-name="Trazado 31" d="M46.164,84.58l22.714-6.509-2.326-8.115L43.838,76.465Zm16.8-11.839a2.438,2.438,0,1,1-.007,0Zm-14.6,4.191a2.511,2.511,0,1,1-.006,0h.006Z" transform="translate(-40.594 -55.165)" fill="#fff" opacity="0.3" style="isolation: isolate"/>
      <path id="Trazado_32" data-name="Trazado 32" d="M63.242,58.968a2.524,2.524,0,0,0-2.773-.981L42.622,63.1a2.54,2.54,0,0,0-1.834,2.3L40.2,76.089l3.721,12.979a1.694,1.694,0,0,0,2.088,1.159l1.623-.465a1.694,1.694,0,0,0,1.159-2.087l-.465-1.622L67.8,80.47l.465,1.622a1.694,1.694,0,0,0,2.088,1.159l1.622-.465A1.694,1.694,0,0,0,73.131,80.7l-3.722-12.98ZM44.12,66.191,60.814,61.4l3.2,4.548-20.2,5.792ZM68.484,76.762,45.771,83.271l-2.326-8.115,22.714-6.509Z" transform="translate(-40.2 -53.858)" fill="#fff"/>
      <line id="Línea_1" data-name="Línea 1" y1="6.875" x2="6.188" transform="translate(33.137 0)" fill="none" stroke="#fff" stroke-linecap="round" stroke-width="3"/>
      <line id="Línea_2" data-name="Línea 2" y1="0.821" x2="10.167" transform="translate(35.344 12.374)" fill="none" stroke="#fff" stroke-linecap="round" stroke-width="3"/>
      <line id="Línea_3" data-name="Línea 3" x2="9.48" y2="4.679" transform="translate(35.344 20.298)" fill="none" stroke="#fff" stroke-linecap="round" stroke-width="3"/>
      <circle id="Elipse_64" data-name="Elipse 64" cx="2.532" cy="2.532" r="2.532" transform="translate(5.165 21.666)" fill="#fff"/>
      <circle id="Elipse_65" data-name="Elipse 65" cx="2.533" cy="2.533" r="2.533" transform="translate(19.77 17.477)" fill="#fff"/>
    </g>
  </g>
</svg>
