<svg xmlns="http://www.w3.org/2000/svg" width="80" height="80" viewBox="0 0 80 80">
  <g id="Group_1860" data-name="Group 1860" transform="translate(-3675 -4184)">
    <g id="Path_52866" data-name="Path 52866" transform="translate(3675 4184)" fill="#36c">
      <path d="M 40 78.5 C 34.80187606811523 78.5 29.76003265380859 77.48227691650391 25.01452255249023 75.47509765625 C 20.43014526367188 73.53606414794922 16.31264495849609 70.75986480712891 12.77638912200928 67.22360992431641 C 9.240133285522461 63.68735504150391 6.46393346786499 59.56985473632812 4.524899959564209 54.98547744750977 C 2.517722129821777 50.23996734619141 1.5 45.19812393188477 1.5 40 C 1.5 34.80187606811523 2.517722129821777 29.76003265380859 4.524899959564209 25.01452255249023 C 6.46393346786499 20.43014526367188 9.240133285522461 16.31264495849609 12.77638912200928 12.77638912200928 C 16.31264495849609 9.240133285522461 20.43014526367188 6.46393346786499 25.01452255249023 4.524899959564209 C 29.76003265380859 2.517722129821777 34.80187606811523 1.5 40 1.5 C 45.19812393188477 1.5 50.23996734619141 2.517722129821777 54.98547744750977 4.524899959564209 C 59.56985473632812 6.46393346786499 63.68735504150391 9.240133285522461 67.22360992431641 12.77638912200928 C 70.75986480712891 16.31264495849609 73.53606414794922 20.43014526367188 75.47509765625 25.01452255249023 C 77.48227691650391 29.76003265380859 78.5 34.80187606811523 78.5 40 C 78.5 45.19812393188477 77.48227691650391 50.23996734619141 75.47509765625 54.98547744750977 C 73.53606414794922 59.56985473632812 70.75986480712891 63.68735504150391 67.22360992431641 67.22360992431641 C 63.68735504150391 70.75986480712891 59.56985473632812 73.53606414794922 54.98547744750977 75.47509765625 C 50.23996734619141 77.48227691650391 45.19812393188477 78.5 40 78.5 Z" stroke="none"/>
      <path d="M 40 3 C 35.00370788574219 3 30.15845489501953 3.977851867675781 25.59883880615234 5.906410217285156 C 21.19326782226562 7.769813537597656 17.23602676391602 10.43806457519531 13.83704376220703 13.83704376220703 C 10.43806457519531 17.23602676391602 7.769813537597656 21.19326782226562 5.906410217285156 25.59883880615234 C 3.977851867675781 30.15845489501953 3 35.00370788574219 3 40 C 3 44.99629211425781 3.977851867675781 49.84153366088867 5.906410217285156 54.40114593505859 C 7.769813537597656 58.80672073364258 10.43806457519531 62.76396179199219 13.83704376220703 66.16294860839844 C 17.23602676391602 69.56193542480469 21.19326782226562 72.23018646240234 25.59885406494141 74.09358978271484 C 30.15846633911133 76.02214813232422 35.00370788574219 77 40 77 C 44.99629211425781 77 49.84153366088867 76.02214813232422 54.40114593505859 74.09358978271484 C 58.80672073364258 72.23018646240234 62.76396179199219 69.56193542480469 66.16294860839844 66.16294860839844 C 69.56193542480469 62.76396179199219 72.23018646240234 58.80672073364258 74.09358978271484 54.40114593505859 C 76.02214813232422 49.84153366088867 77 44.99629211425781 77 40 C 77 35.00370788574219 76.02214813232422 30.15846633911133 74.09358978271484 25.59885406494141 C 72.23018646240234 21.19326782226562 69.56193542480469 17.23602676391602 66.16294860839844 13.83704376220703 C 62.76396179199219 10.43806457519531 58.80672073364258 7.769813537597656 54.40114593505859 5.906410217285156 C 49.84153366088867 3.977851867675781 44.99629211425781 3 40 3 M 40 0 C 62.09138488769531 0 80 17.90859985351562 80 40 C 80 62.09138488769531 62.09138488769531 80 40 80 C 17.90859985351562 80 0 62.09138488769531 0 40 C 0 17.90859985351562 17.90859985351562 0 40 0 Z" stroke="none" fill="#fdfdfd"/>
    </g>
    <g id="Grupo_842_00000152979987445483778870000004202327832341808014_" transform="translate(3547.489 4596.384)">
      <g id="Grupo_840_00000118369434548347283880000014650030497231846792_" transform="translate(151.452 -393.747)">
        <path id="Trazado_119_00000129910291428448274530000005146229646715735473_" d="M-151.418-572.732h-2.105v-.7a7.717,7.717,0,0,0-7.705-7.73,7.717,7.717,0,0,0-7.441,5.625h-1a5.614,5.614,0,0,0-5.7,5.529,5.614,5.614,0,0,0,5.529,5.7h18.41a4.213,4.213,0,0,0,4.323-4.1,4.213,4.213,0,0,0-4.028-4.321Z" transform="translate(178.032 583.958)" fill="#fdfdfd" opacity="0.3"/>
        <path id="Trazado_120_00000125571604568628690990000014170203057692991120_" d="M-149.384-573.862a10.515,10.515,0,0,0-12.354-8.278,10.516,10.516,0,0,0-7.293,5.468,8.42,8.42,0,0,0-7.4,9.328,8.42,8.42,0,0,0,8.312,7.456h18.244a7,7,0,0,0,7.081-6.911,7,7,0,0,0-6.589-7.07Zm-.491,11.171H-168.12a5.614,5.614,0,0,1-5.675-5.551,5.614,5.614,0,0,1,5.551-5.676h1.119a7.718,7.718,0,0,1,9.521-5.336,7.718,7.718,0,0,1,5.625,7.441v.7h2.106a4.213,4.213,0,0,1,4.058,4.362,4.212,4.212,0,0,1-4.058,4.058h0Z" transform="translate(176.487 582.341)" fill="#fdfdfd"/>
      </g>
      <path id="Trazado_52688_00000128482117623877117590000015977112922214356639_" d="M155.439-382.661q-2.584,2.206-2.585,3.815a2.587,2.587,0,0,0,2.526,2.646,2.587,2.587,0,0,0,2.646-2.526c0-.04,0-.08,0-.119Q158.025-380.457,155.439-382.661Z" transform="translate(1.923 15.217)" fill="#fdfdfd"/>
      <path id="Trazado_52689_00000043427285655132775770000003109570548076784006_" d="M164.291-382.661q-2.585,2.206-2.586,3.815a2.587,2.587,0,0,0,2.526,2.646,2.587,2.587,0,0,0,2.646-2.526c0-.04,0-.08,0-.119Q166.874-380.457,164.291-382.661Z" transform="translate(14.074 15.217)" fill="#fdfdfd"/>
      <g id="Grupo_841_00000090259853140638076440000010336848951730050695_" transform="translate(164.437 -369.234)">
        <path id="Trazado_52690_00000086652816599244366870000012877055708813074844_" d="M-186.905-593.985h-.765l.765-5.362h-2.681c-.674,0-.252-.575-.237-.6q1.482-2.62,4.459-7.829h.765l-.765,5.362h2.689c.306,0,.474.146.306.506Q-186.909-593.988-186.905-593.985Z" transform="translate(189.967 607.773)" fill="#fdfdfd"/>
      </g>
    </g>
  </g>
</svg>
