<?xml version="1.0" encoding="utf-8"?>
<!-- Generator: Adobe Illustrator 25.4.1, SVG Export Plug-In . SVG Version: 6.00 Build 0)  -->
<svg version="1.1" id="Capa_1" xmlns="http://www.w3.org/2000/svg" xmlns:xlink="http://www.w3.org/1999/xlink" x="0px" y="0px"
	 viewBox="0 0 35 35" enable-background="new 0 0 35 35" xml:space="preserve">
<path id="Rectángulo_816_00000160173917478717610820000017291433926170705044_" fill="#004884" d="M7.3057,1.9149h20.3885
	c2.9773,0,5.3908,2.4136,5.3908,5.3908v20.3885c0,2.9773-2.4136,5.3908-5.3908,5.3908H7.3057c-2.9773,0-5.3908-2.4136-5.3908-5.3908
	V7.3057C1.9149,4.3285,4.3285,1.9149,7.3057,1.9149z"/>
<g id="videocam_black_24dp_1_" transform="translate(0 44.962)">
	<path id="Trazado_2552" fill="none" d="M6.3853-38.4065h22.74v22.74h-22.74V-38.4065z"/>
	<path id="Trazado_2553" opacity="0.3" fill="#FFFFFF" enable-background="new    " d="M11.1232-30.8258h9.4757v7.58h-9.4757
		V-30.8258z"/>
	<path id="Trazado_2554" fill="#FFFFFF" d="M22.4939-31.7729c-0.0016-0.5226-0.4246-0.9459-0.9471-0.9479H10.176
		c-0.5228,0.0016-0.9463,0.425-0.9479,0.9479v9.4757c0.0016,0.5228,0.425,0.9463,0.9479,0.9479h11.3707
		c0.5228-0.0016,0.9463-0.425,0.9479-0.9479v-3.3168l3.79,3.79v-10.4229l-3.79,3.79L22.4939-31.7729z M20.5989-23.2451h-9.4757
		v-7.5807h9.4757V-23.2451z"/>
</g>
</svg>
