<?xml version="1.0" encoding="utf-8"?>
<!-- Generator: Adobe Illustrator 25.4.1, SVG Export Plug-In . SVG Version: 6.00 Build 0)  -->
<svg version="1.1" id="Capa_1" xmlns="http://www.w3.org/2000/svg" xmlns:xlink="http://www.w3.org/1999/xlink" x="0px" y="0px"
	 viewBox="0 0 35 35" enable-background="new 0 0 35 35" xml:space="preserve">
<path id="Rectángulo_816_00000160173917478717610820000017291433926170705044_" fill="#004884" d="M7.3057,1.9149h20.3885
	c2.9773,0,5.3908,2.4136,5.3908,5.3908v20.3885c0,2.9773-2.4136,5.3908-5.3908,5.3908H7.3057c-2.9773,0-5.3908-2.4136-5.3908-5.3908
	V7.3057C1.9149,4.3285,4.3285,1.9149,7.3057,1.9149z"/>
<g>
	
		<circle id="Elipse_200_00000181067210690618148990000012609348577974221198_" opacity="0.3" fill="#FFFFFF" cx="17.5" cy="17.5" r="3.266"/>
	<path id="Trazado_77981_00000183227694391818558040000014196468774620529072_" fill="#FFFFFF" d="M12.0567,17.5
		c0,3.0062,2.437,5.4433,5.4433,5.4433s5.4433-2.437,5.4433-5.4433s-2.437-5.4433-5.4433-5.4433S12.0567,14.4938,12.0567,17.5z
		 M20.766,17.5c0,1.8037-1.4622,3.266-3.266,3.266s-3.266-1.4622-3.266-3.266s1.4622-3.266,3.266-3.266
		C19.3015,14.2394,20.7606,15.6985,20.766,17.5z M7.7021,25.1206c0.0036,1.201,0.9763,2.1737,2.1773,2.1773h4.3546v-2.1773H9.8794
		V20.766H7.7021V25.1206z M7.7021,9.8794v4.3546h2.1773V9.8794h4.3546V7.7021H9.8794C8.6784,7.7057,7.7057,8.6784,7.7021,9.8794z
		 M27.2979,9.8794c-0.0036-1.201-0.9763-2.1737-2.1773-2.1773H20.766v2.1773h4.3546v4.3546h2.1773V9.8794z M25.1206,25.1206H20.766
		v2.1773h4.3546c1.201-0.0036,2.1737-0.9763,2.1773-2.1773V20.766h-2.1773V25.1206z"/>
</g>
</svg>
