<svg xmlns="http://www.w3.org/2000/svg" viewBox="0 0 763.61 151.55"><defs><style>.cls-1{fill:#bbce0c;}.cls-2{fill:#bccf0c;}</style></defs><g id="Capa_2" data-name="Capa 2"><g id="Capa_1-2" data-name="Capa 1"><path class="cls-1" d="M11.1,132.06,6.68,121H4.3L0,132.06H2.36l.92-2.51H7.71l1,2.51ZM4,127.67l1.5-4.09L7,127.67Z"/><polygon class="cls-1" points="19.48 130.19 13.93 130.19 13.93 121.1 11.7 121.1 11.7 132.06 19.48 132.06 19.48 130.19"/><path class="cls-1" d="M26,129.76a2.18,2.18,0,0,1-1.53.58,2.45,2.45,0,0,1-2-.89,4.61,4.61,0,0,1-.76-3,4.23,4.23,0,0,1,.77-2.84,2.52,2.52,0,0,1,2-.9,2.37,2.37,0,0,1,1.51.51,2.3,2.3,0,0,1,.82,1.35l2.21-.53A4.37,4.37,0,0,0,28,122a4.61,4.61,0,0,0-3.29-1.2,4.93,4.93,0,0,0-3.76,1.54,6,6,0,0,0-1.42,4.28,5.72,5.72,0,0,0,1.42,4.11,4.78,4.78,0,0,0,3.62,1.5,4.75,4.75,0,0,0,2.94-.87,5,5,0,0,0,1.66-2.71L27,128a3.2,3.2,0,0,1-.92,1.78"/><path class="cls-1" d="M32.41,129.54h4.42l1,2.52h2.44L35.8,121H33.42l-4.3,11.06h2.37Zm2.17-5.95,1.53,4.08h-3Z"/><polygon class="cls-1" points="48.82 130.19 43.27 130.19 43.27 121.1 41.03 121.1 41.03 132.06 48.82 132.06 48.82 130.19"/><path class="cls-1" d="M55.91,121.21A8,8,0,0,0,53.8,121H49.72v11.06h4.19a6.7,6.7,0,0,0,2-.24,3.84,3.84,0,0,0,1.57-.88A4.73,4.73,0,0,0,58.65,129a7,7,0,0,0,.34-2.36,8.22,8.22,0,0,0-.36-2.61,4.85,4.85,0,0,0-1.06-1.78,3.62,3.62,0,0,0-1.66-1m.55,7.35a2.31,2.31,0,0,1-.59,1.06,2,2,0,0,1-.9.46,6,6,0,0,1-1.35.11H52v-7.31h1a13.27,13.27,0,0,1,1.83.09,2.29,2.29,0,0,1,1,.53,2.54,2.54,0,0,1,.63,1.07,7,7,0,0,1,.23,2,7.66,7.66,0,0,1-.23,2"/><polygon class="cls-1" points="61.59 117.73 60.56 119.99 61.9 119.99 63.96 117.73 61.59 117.73"/><rect class="cls-1" x="59.99" y="121" width="2.24" height="11.06"/><path class="cls-1" d="M67.57,121l-4.29,11.06h2.36l.92-2.52H71l1,2.52h2.43L70,121Zm-.33,6.67,1.5-4.08,1.52,4.08Z"/><polygon class="cls-1" points="90.27 121 86.92 121 84.93 128.55 82.93 121 79.59 121 79.59 132.06 81.66 132.06 81.67 123.35 83.84 132.06 85.99 132.06 88.19 123.35 88.19 132.06 90.27 132.06 90.27 121"/><path class="cls-1" d="M102.2,132.06,97.77,121H95.39l-4.3,11.07h2.36l.93-2.51H98.8l1,2.51Zm-7.14-4.39,1.5-4.09,1.51,4.09Z"/><polygon class="cls-1" points="99.44 121 103.5 127.41 103.5 132.06 105.74 132.06 105.74 127.42 109.79 121 107.22 121 104.68 125.38 102.07 121 99.44 121"/><path class="cls-1" d="M108.86,126.6a5.69,5.69,0,0,0,1.44,4.14,5.21,5.21,0,0,0,3.94,1.5,5.12,5.12,0,0,0,3.89-1.51,5.79,5.79,0,0,0,1.44-4.19,5.85,5.85,0,0,0-1.45-4.21,5.24,5.24,0,0,0-3.92-1.51,6.05,6.05,0,0,0-2.38.43,4.07,4.07,0,0,0-1.44,1,5.34,5.34,0,0,0-1,1.5,7.16,7.16,0,0,0-.49,2.84m3.14-2.93a2.86,2.86,0,0,1,2.24-.94,2.82,2.82,0,0,1,2.2.93,5.25,5.25,0,0,1,0,5.71,2.78,2.78,0,0,1-2.17,1,2.87,2.87,0,0,1-2.22-1,4.13,4.13,0,0,1-.86-2.85,4.2,4.2,0,0,1,.84-2.85"/><path class="cls-1" d="M128.92,129.9a11.36,11.36,0,0,0-1.26-1.78,5.42,5.42,0,0,0-1.18-.94,3.44,3.44,0,0,0,2.17-1,3,3,0,0,0,.73-2,3.06,3.06,0,0,0-.49-1.75,2.46,2.46,0,0,0-1.28-1.06A8.15,8.15,0,0,0,125,121h-4.7v11h2.24v-4.61H123a3.81,3.81,0,0,1,1.12.12,1.87,1.87,0,0,1,.68.45c.2.23.6.77,1.18,1.63l1.6,2.41h2.68Zm-4.7-4.22h-1.65v-2.8h1.74c.92,0,1.47,0,1.63,0a1.23,1.23,0,0,1,.83.44,1.24,1.24,0,0,1,.3.91,1.4,1.4,0,0,1-.22.81,1.19,1.19,0,0,1-.64.49,10.1,10.1,0,0,1-2,.12"/><rect class="cls-1" x="108.01" y="147.84" width="2.11" height="2.11"/><path class="cls-1" d="M15.6,140.25a3.79,3.79,0,0,0-1.64-1,7.83,7.83,0,0,0-2.07-.2h-4v10.86H12a6.35,6.35,0,0,0,1.93-.23,3.79,3.79,0,0,0,1.55-.87,4.78,4.78,0,0,0,1.16-1.91,7,7,0,0,0,.33-2.33,8,8,0,0,0-.35-2.56,4.6,4.6,0,0,0-1-1.76m-1.09,6.22a2.35,2.35,0,0,1-.58,1,2,2,0,0,1-.88.46,6.91,6.91,0,0,1-1.33.09H10.08v-7.17h1a10,10,0,0,1,1.8.1,2.15,2.15,0,0,1,1,.51,2.46,2.46,0,0,1,.63,1.05,6.39,6.39,0,0,1,.23,1.94,7,7,0,0,1-.23,2"/><polygon class="cls-1" points="19.93 145.13 25.36 145.13 25.36 143.29 19.93 143.29 19.93 140.88 25.78 140.88 25.78 139.04 17.73 139.04 17.73 149.91 25.99 149.91 25.99 148.06 19.93 148.06 19.93 145.13"/><path class="cls-1" d="M38.35,144.13a2.52,2.52,0,0,0,1.11-1,2.55,2.55,0,0,0,.41-1.4,2.51,2.51,0,0,0-.33-1.27,2.87,2.87,0,0,0-.84-.89,3,3,0,0,0-1.13-.46,13.31,13.31,0,0,0-1.92-.09H31.3v10.85H35q2.1,0,2.64-.06a3.39,3.39,0,0,0,1.49-.53,3,3,0,0,0,.93-1.1,3.38,3.38,0,0,0,.34-1.46,2.63,2.63,0,0,0-.53-1.65,2.91,2.91,0,0,0-1.52-1m-4.85-3.28h1.25c1,0,1.67,0,1.88,0a1.11,1.11,0,0,1,1.11,1.19,1.15,1.15,0,0,1-.33.85,1.44,1.44,0,0,1-.88.39c-.21,0-.74,0-1.59,0H33.5Zm4.34,6.72a1.44,1.44,0,0,1-.8.44,11.21,11.21,0,0,1-1.51.06h-2v-2.9h1.77a7.92,7.92,0,0,1,2,.15,1.42,1.42,0,0,1,.68.51,1.33,1.33,0,0,1,.24.82,1.36,1.36,0,0,1-.31.92"/><path class="cls-1" d="M46.43,138.86a5.89,5.89,0,0,0-2.34.43,4.25,4.25,0,0,0-1.41,1,5.61,5.61,0,0,0-1,1.5,7.07,7.07,0,0,0-.48,2.78,5.59,5.59,0,0,0,1.43,4.08,5.11,5.11,0,0,0,3.85,1.48,5,5,0,0,0,3.82-1.49,6.65,6.65,0,0,0,0-8.25,5,5,0,0,0-3.84-1.5m2.18,8.41a2.92,2.92,0,0,1-4.32,0,5.05,5.05,0,0,1,0-5.58,2.79,2.79,0,0,1,2.19-.94,2.73,2.73,0,0,1,2.17.92,4.05,4.05,0,0,1,.82,2.78,4.14,4.14,0,0,1-.84,2.83"/><path class="cls-1" d="M58.14,145.94h2.51v1.36a5,5,0,0,1-1.19.65,4,4,0,0,1-1.38.27,2.88,2.88,0,0,1-2.25-1,4.21,4.21,0,0,1-.86-2.89,3.77,3.77,0,0,1,.86-2.71,3,3,0,0,1,2.27-.91,2.66,2.66,0,0,1,1.58.46,2.29,2.29,0,0,1,.87,1.27l2.18-.42a3.88,3.88,0,0,0-1.46-2.35,5.26,5.26,0,0,0-3.17-.84,5.62,5.62,0,0,0-2.6.54,4.72,4.72,0,0,0-2.08,2,6.16,6.16,0,0,0-.72,3,6.65,6.65,0,0,0,.64,2.89,4.4,4.4,0,0,0,1.91,2,5.82,5.82,0,0,0,3,.72,7.26,7.26,0,0,0,2.64-.5,6.28,6.28,0,0,0,2-1.18v-4.32H58.14Z"/><path class="cls-1" d="M69.07,138.86a5.85,5.85,0,0,0-2.34.43,4.39,4.39,0,0,0-1.42,1,5.57,5.57,0,0,0-1,1.5,7.05,7.05,0,0,0-.5,2.78,5.56,5.56,0,0,0,1.45,4.08,5.11,5.11,0,0,0,3.85,1.48,5,5,0,0,0,3.82-1.49,6.66,6.66,0,0,0,0-8.25,5.11,5.11,0,0,0-3.85-1.5m2.18,8.41a2.92,2.92,0,0,1-4.32,0,5,5,0,0,1,0-5.58,2.75,2.75,0,0,1,2.18-.94,2.8,2.8,0,0,1,2.19.92,5.23,5.23,0,0,1,0,5.61"/><polygon class="cls-1" points="83.02 139.04 74.38 139.04 74.38 140.88 77.61 140.88 77.61 149.92 79.81 149.92 79.81 140.88 83.02 140.88 83.02 139.04"/><path class="cls-1" d="M86.17,139l-4.23,10.88h2.34l.89-2.48h4.35l.94,2.48h2.4L88.5,139Zm-.32,6.55,1.46-4,1.5,4Z"/><polygon class="cls-1" points="86.54 138.05 87.86 138.05 89.89 135.83 87.56 135.83 86.54 138.05"/><path class="cls-1" d="M106.61,140.25a3.79,3.79,0,0,0-1.64-1,7.75,7.75,0,0,0-2.06-.2h-4v10.86H103a6.5,6.5,0,0,0,2-.23,3.82,3.82,0,0,0,1.54-.87,4.67,4.67,0,0,0,1.16-1.91,7.27,7.27,0,0,0,.33-2.33,8,8,0,0,0-.35-2.56,4.6,4.6,0,0,0-1-1.76m-1.09,6.22a2.35,2.35,0,0,1-.57,1,2.2,2.2,0,0,1-.9.46,6.72,6.72,0,0,1-1.32.09h-1.65v-7.17h1a9.74,9.74,0,0,1,1.79.1,2.11,2.11,0,0,1,1,.51,2.37,2.37,0,0,1,.64,1.05,6.44,6.44,0,0,1,.22,1.94,7,7,0,0,1-.22,2"/><path class="cls-1" d="M116.72,147.66a2.18,2.18,0,0,1-1.51.55,2.36,2.36,0,0,1-1.92-.87,4.44,4.44,0,0,1-.74-2.92,4.15,4.15,0,0,1,.75-2.81,2.41,2.41,0,0,1,2-.87,2.37,2.37,0,0,1,1.48.49,2.27,2.27,0,0,1,.8,1.34l2.18-.52a4.14,4.14,0,0,0-1.12-2,4.46,4.46,0,0,0-3.24-1.2,4.8,4.8,0,0,0-3.69,1.52,5.9,5.9,0,0,0-1.4,4.2,5.66,5.66,0,0,0,1.4,4.06,5.13,5.13,0,0,0,6.45.6,4.91,4.91,0,0,0,1.62-2.65l-2.12-.68a3.31,3.31,0,0,1-.91,1.76"/><rect class="cls-1" x="120.09" y="147.87" width="2.11" height="2.1"/><path class="cls-1" d="M56,32.74c1.89-.09,3.38-.85,3.47-1.81s-1.58-1.81-3.56-1.81-2.87,1.05-2.87,1.9,1,1.82,3,1.72"/><path class="cls-1" d="M37,91c-1.09-1.54-2.68-2.29-3.47-1.82s-.79,2.19.3,3.72,2.37,1.91,3.17,1.43,1-1.8,0-3.33"/><path class="cls-1" d="M77,31c0-.86-1-1.81-2.87-1.92s-3.56,1-3.56,1.82,1.58,1.72,3.46,1.82S77.1,32,77,31"/><path class="cls-1" d="M60.83,100.28c-2-.27-3.65.2-3.85,1.06s1.08,2.1,3,2.48,3.16-.29,3.35-1.24-.58-1.9-2.47-2.3"/><path class="cls-1" d="M98.56,65.08c.11-1.91-.69-3.43-1.57-3.53s-2.09,1.33-2.18,3.26.79,2.85,1.67,2.94,2-.86,2.08-2.67"/><path class="cls-1" d="M35.4,64.79c-.09-1.91-1.19-3.34-2.19-3.24s-1.56,1.62-1.47,3.53,1.09,2.76,2,2.67,1.77-1.15,1.68-3"/><path class="cls-1" d="M97.44,39.71c.88-.09,1.78-1.15,1.68-3s-1.19-3.34-2.18-3.24S95.26,35.12,95.36,37s1.08,2.76,2.08,2.67"/><path class="cls-1" d="M93.29,90.94c-1.09,1.54-.88,2.86,0,3.34s2.09.1,3.17-1.43,1.09-3.25.29-3.72-2.37.28-3.46,1.81"/><path class="cls-1" d="M32.8,39.71c.89.09,1.88-.85,2-2.67s-.59-3.44-1.49-3.53-2.07,1.34-2.17,3.24.7,2.87,1.68,3"/><path class="cls-1" d="M87.33,69.46c-.29-.09-1.47,1.15-1.47,1.15-.31-1-1.8-1-1.8-1V70c1,.1,1.2,1.44.89,1.91-.09.29,1,1,1.19.68a1.41,1.41,0,0,1,2.18,0l.2-.2S88,71.09,87,71.27c0,0,.59-1.61.29-1.81"/><path class="cls-1" d="M85.26,72.52c-2.18-1.34-4.85-1-5.93.67s-.27,3.94,1.77,5.3c-1.47.13-3.36-1.87-3.36-1.87-.84,1.54.68,2.4,1.86,2.82-.17.12-.29.26-.45.39-1.12-.29-1.55.22-1.55.22-.2-.06-2.67-2.75-4.5-4.64l1.63-.32c-1.2-2.74-4.39-3.34-6.56-5-1.64-1.25.2-1.79.63-1.38,4.06,3.45,7.72,1.07,7.72,1.07-2.87-1-4.26-4.22-4.26-4.22a9.18,9.18,0,0,0,10.49-.47c-4,.66-7-3.06-7-3.06a11.89,11.89,0,0,0,10.39-2.67c-2.27.19-7.9-2.19-7.9-2.19,9-.29,9.78-6.69,9.89-6.69-2.49,1.63-9.11.86-9.11.86,9.4-3.33,8.7-11,8.7-11-2,2.95-11.07,5.81-11.07,5.81a6.08,6.08,0,0,0-4.45,5.55A2.21,2.21,0,0,1,70,53.53c-2.43,0-2.39-3.5-2.39-5.16,0-2.48-.1-5.33-1.88-5.33H62.17c-.64,0-1.74-.07-2.21.48-.92,1.07-.77,3.91-.36,3.33a4.25,4.25,0,0,1,2.28,0c1.15.34.29,3.9.29,4.68a2.14,2.14,0,0,1-2.18,2,2.19,2.19,0,0,1-2.17-1.89,6.1,6.1,0,0,0-4.36-5.55s-9.29-2.86-11.26-5.81c0,0-.71,7.8,8.79,11.25,0,0-6.72.57-9.19-1.06.09,0,1.27,6.69,10.28,7,0,0-5.93,2-8.1,1.71,0,0,4.25,4.87,10.58,3.43,0,0-3.47,3.15-7.42,2.49a9.18,9.18,0,0,0,10.48.66,7.82,7.82,0,0,1-4.16,4s3.66,2.38,7.82-1.07c.53-.58,2.21.09.53,1.39-2.26,1.72-5.49,2.14-6.86,5l1.67.33C54.74,77.31,52.24,80,52,80.05c0,0-.38-.49-1.43-.27-.14-.11-.26-.24-.41-.34,1.19-.42,2.7-1.28,1.88-2.82,0,0-1.9,2-3.37,1.87,2-1.35,2.84-3.64,1.78-5.3s-3.76-2-5.94-.67-3.06,3.82-2,5.53,3.42,2,5.62.76a6.09,6.09,0,0,1-3.35,2S46,83.16,48.72,80c.17.13.28.25.44.38-.73.56-1,1.51-.44,1.93,0,0-.3,1.52,1.49,1.43a1.4,1.4,0,0,0,1.84.4c.79,2.11.52,4.09.76,5.22l2.27.1c-.21-1-.28-4.19-2.1-7.09.35-.3.55-.72.19-1.11a61.85,61.85,0,0,1,5.63-3.64l.3,1.54a6.62,6.62,0,0,1,3.44-2.29,9.5,9.5,0,0,0-1.85,7.63s.39-1.24,2.38-1.44c0,0-2.78,3.35,1.67,9.84,4.45-6.49,1.89-9.84,1.89-9.84a2.82,2.82,0,0,1,2.47,1.44,9.7,9.7,0,0,0-2-7.69,6.25,6.25,0,0,1,3.46,2.35l.32-1.58c2.38,1.49,5.68,3.56,5.62,3.68-.37.4-.12.83.24,1.13-1.79,2.89-1.88,6.08-2.1,7.07l2.28-.1c.23-1.13,0-3.09.74-5.19a1.49,1.49,0,0,0,1.81-.43c1.77.09,1.48-1.43,1.48-1.43.58-.41.3-1.32-.43-1.88.18-.14.3-.28.5-.42,2.7,3.11,3.91.76,3.91.76a6.11,6.11,0,0,1-3.34-2c2.2,1.22,4.58.88,5.63-.76s.19-4.2-2-5.53m-40.47,4.3c-1.09-1.73-1.09-3.63-.19-4.11s2.56.38,3.65,2.1.9,3,0,3.53-2.27.19-3.46-1.52M63.45,45.89a.91.91,0,0,1-1-.84.93.93,0,0,1,1-1,.9.9,0,0,1,.9,1,.87.87,0,0,1-.9.84M85,76.82c-1.18,1.71-2.57,2.1-3.44,1.52s-1.2-1.91,0-3.53,2.76-2.58,3.64-2.1.89,2.38-.2,4.11"/><path class="cls-1" d="M43.61,72.61c.18.27,1.28-.38,1.19-.66-.3-.48-.1-1.81.89-1.92v-.38s-1.49,0-1.79.95c0,0-1.18-1.23-1.49-1.13s.31,1.8.31,1.8c-1-.18-1.49,1.15-1.49,1.15l.2.19a1.44,1.44,0,0,1,2.18,0"/><path class="cls-1" d="M74.08,82.82a4.52,4.52,0,0,0-3-1.34,4,4,0,0,0,1.09,3.25,3.85,3.85,0,0,0,3,1.43,4.73,4.73,0,0,0-1.09-3.34"/><path class="cls-1" d="M54.58,86.15a3.81,3.81,0,0,0,3-1.42,4.09,4.09,0,0,0,1.08-3.24,4.43,4.43,0,0,0-3,1.33,4.74,4.74,0,0,0-1.09,3.33"/><polygon class="cls-1" points="67.02 42.18 69 39.13 65.93 40.27 64.83 37.51 63.66 40.27 60.49 39.13 62.56 42.18 67.02 42.18"/><path class="cls-1" d="M64.88,20.57A42,42,0,0,1,26,20.47V90.15a15.46,15.46,0,0,0,15.73,15.29c8.42,0,15.92,1.17,23.16,5.81,7.23-4.55,14.64-5.81,23.06-5.81a15.53,15.53,0,0,0,15.81-15.29V20.47a42.07,42.07,0,0,1-38.87.1M96.14,31.41s.2-1.53.51-1.53.79,1.43.79,1.43c.58-.57,1.78.1,1.78.1l-.11.28a1.19,1.19,0,0,0-1.58,1.05c0,.29-1.28.38-1.28.1a1.36,1.36,0,0,0-1.78-1l-.11-.19s1-.85,1.78-.28m.8,2c2.37-.19,4.45,1.14,4.65,2.95S100.13,39.61,98,40a6.17,6.17,0,0,0,3.54-.24s.28,2.2-3.13,1.49c.14,1.78-1,3.1-1.42,4.88a4,4,0,0,1,1-.93,5,5,0,0,1,3.26-.57A3.58,3.58,0,0,1,99.62,47a4.5,4.5,0,0,1-2.83.72,7.47,7.47,0,0,0,.84,2.9l-1.57,1.23a9.5,9.5,0,0,1,.19-7.53c.79-1.69,1-2.35.87-3-1.09.4-3.25.92-3.54-.92,0,0,2.41.4,3.54-.38-2.19-.06-4-1.36-4.24-3.06s1.69-3.43,4.06-3.52m2.64,26.22-.13.29a1.35,1.35,0,0,0-1.78,1c0,.28-1.28.19-1.28-.11a1.18,1.18,0,0,0-1.57-1.05l-.1-.27s1.18-.68,1.76-.11c0,0,.51-1.52.79-1.43s.5,1.54.5,1.54c.79-.58,1.81.18,1.81.18M74,26.83c1.81,0,3.24,1.73,3.28,3.88.7-1.28.18-2.79.09-3.5,0,0,2.28-.09,1.4,3.09,1.76.06,3,1.2,4.75,1.75a3.45,3.45,0,0,1-.81-1,3.88,3.88,0,0,1-.38-3.15,3.32,3.32,0,0,1,2.37,1.72,4.06,4.06,0,0,1,.49,2.74,8.33,8.33,0,0,0,3.06-.53l1.2,1.61a11.18,11.18,0,0,1-7.82-.87,6.89,6.89,0,0,0-2.92-1.1c.26,1,.58,3.23-1.24,3.3,0,0,.61-2.41-.2-3.5a3.8,3.8,0,0,1-3.54,3.88c-1.89,0-3.37-1.9-3.28-4.2A3.84,3.84,0,0,1,74,26.83M68.6,28.64l.3.1c-.49.86.49,1.62,1,1.62.28,0,.28,1.14,0,1.14a1.4,1.4,0,0,0-1.21,1.73h-.28s-.7-1.06-.11-1.73c0,0-1.57-.28-1.57-.57s1.68-.57,1.68-.57c-.6-.67.19-1.72.19-1.72m-8.41,1.72c.5,0,1.48-.76,1-1.62l.3-.1s.78,1.05.19,1.72c0,0,1.69.29,1.69.57s-1.57.57-1.57.57c.59.67-.12,1.73-.12,1.73h-.29a1.39,1.39,0,0,0-1.19-1.73c-.3,0-.3-1.14,0-1.14m-18.4,1.45a8.37,8.37,0,0,0,3.06.53,4.07,4.07,0,0,1,.5-2.74,3.3,3.3,0,0,1,2.38-1.72A3.85,3.85,0,0,1,47.32,31a3,3,0,0,1-.79,1c1.74-.55,3-1.69,4.75-1.75-.88-3.18,1.4-3.09,1.4-3.09-.11.71-.61,2.22.08,3.5.06-2.15,1.48-3.88,3.27-3.88a3.84,3.84,0,0,1,3.58,4.1c.09,2.3-1.4,4.2-3.27,4.2a3.81,3.81,0,0,1-3.57-3.88c-.8,1.09-.2,3.5-.2,3.5-1.81-.07-1.49-2.26-1.23-3.3a6.76,6.76,0,0,0-2.92,1.1,11.16,11.16,0,0,1-7.81.87Zm-9-.49s.49-1.52.79-1.44.49,1.53.49,1.53c.8-.58,1.78.28,1.78.28l-.1.19a1.37,1.37,0,0,0-1.77,1c-.1.28-1.29.19-1.29-.1a1.22,1.22,0,0,0-1.58-1.05l-.1-.28s1.18-.67,1.78-.09m.49,2.1c2.38.09,4.17,1.71,4.06,3.52s-2.05,3-4.24,3.06c1.12.78,3.55.38,3.55.38-.29,1.85-2.45,1.32-3.54.92-.1.64.07,1.3.87,3a10,10,0,0,1,.2,7.53l-1.6-1.23a7.36,7.36,0,0,0,.81-2.9A4.39,4.39,0,0,1,30.63,47a3.13,3.13,0,0,1-1.58-2.39,4.92,4.92,0,0,1,3.26.57,3.79,3.79,0,0,1,.88.8c-.45-1.71-1.52-3-1.35-4.75-3.35.7-3.09-1.49-3.09-1.49a6.15,6.15,0,0,0,3.53.23c-2.16-.33-3.73-1.87-3.63-3.55s2.27-3.17,4.64-3m2.2,26-.09.27a1.2,1.2,0,0,0-1.59,1.05c0,.3-1.18.39-1.27.11a1.36,1.36,0,0,0-1.79-1l-.1-.29s1-.76,1.78-.18c0,0,.2-1.54.5-1.54s.79,1.43.79,1.43c.59-.57,1.77.11,1.77.11M28.18,70.51a3.81,3.81,0,0,1,2.95,1.06,2.6,2.6,0,0,1,1,1.68,6.55,6.55,0,0,1,.37-.92c.79-1.69,1-2.35.86-3-1.08.38-3.24.91-3.54-.93,0,0,2.59.41,3.65-.46-2.24.06-4.15-1.24-4.35-3s1.68-3.44,4.07-3.63,4.46,1.24,4.64,3.06-1.57,3.31-3.81,3.51c1.4.59,2.89,0,3.71-.17,0,0,.27,2.2-3.1,1.49.28,3-3,4.66-.75,9.39l-1.58,1.23a9.59,9.59,0,0,1-.42-5.71,4.06,4.06,0,0,1-2.84-1.05,2.72,2.72,0,0,1-.9-2.59m2.34,18.32-.21-.18s.5-1.24,1.5-1.05c0,0-.71-1.42-.41-1.61s1.38,1,1.38,1c.31-.87,1.59-.87,1.59-.87l.1.29a1.3,1.3,0,0,0-.89,1.82c.2.19-.89.86-1,.65a1.33,1.33,0,0,0-2.07,0m13.15,14.23a7.47,7.47,0,0,0-1.14-2.76,5.05,5.05,0,0,1-2.62,1,3.54,3.54,0,0,1-2.87-1A4.13,4.13,0,0,1,40,99a4.29,4.29,0,0,1,1.31.09c-1.43-1.09-3.11-1.51-4.13-3-2.27,2.46-3.41.53-3.41.53a5.47,5.47,0,0,0,3.11-2c-2,1.22-4.23.92-5.29-.58s-.19-3.81,1.78-5,4.45-1,5.44.47.36,3.64-1.54,4.9c1.36.14,3.23-1.66,3.23-1.66.88,1.59-1.19,2.41-2.27,2.72.33.59.89,1,2.56,1.87a10.27,10.27,0,0,1,5,5.92Zm12.51-1.33c-.59-.11-1.68.47-1.47,1.43H54.4s-.48-1.15.31-1.73c0,0-1.59-.66-1.49-1s1.68-.19,1.68-.19c-.5-.86.5-1.72.5-1.72l.3.2c-.61.77.19,1.71.69,1.81.29.1,0,1.24-.21,1.15m18.31,2.57a8,8,0,0,0-2.87-1.17,3.74,3.74,0,0,1-1.09,2.51,3.7,3.7,0,0,1-2.77,1.24,5.08,5.08,0,0,1,1.09-3.06,4,4,0,0,1,1-.72c-1.8.2-3.32,1-5.11.69.2,3.28-2,2.61-2,2.61.26-.7,1.11-2,.74-3.4a3.73,3.73,0,0,1-4.11,3.11c-1.88-.47-3-2.57-2.58-4.76s2.38-3.81,4.25-3.44a3.82,3.82,0,0,1,2.55,4.48c1-.87.93-3.24.93-3.24,1.85.5,1,2.44.51,3.39a5.86,5.86,0,0,0,3.15-.34,11.26,11.26,0,0,1,7.91.76Zm-9.68-7.42c-5-3.12-9.69-3.73-15.43-3.73A10,10,0,0,1,39.25,83l0-46.85c6.23,3.34,19.93,1.1,25.92-2,6,3.15,19.58,5.31,25.9,2L91,83c0,5.56-5,10.12-10.85,10.12-5.7,0-10.38.64-15.32,3.73M98.64,94c-1,1.46-3.24,1.79-5.25.66a5.6,5.6,0,0,0,3.07,1.93s-1.14,1.93-3.41-.53c-1,1.49-2.7,1.91-4.13,3a4,4,0,0,1,1.32-.1,4.27,4.27,0,0,1,3,1.33,3.69,3.69,0,0,1-2.86,1.06,4.85,4.85,0,0,1-2.63-1,7.31,7.31,0,0,0-1.13,2.76l-2.08.1a10.33,10.33,0,0,1,4.94-5.92C91.12,96.4,91.67,96,92,95.37c-1.08-.31-3.17-1.13-2.27-2.72,0,0,1.78,1.73,3.15,1.67-1.82-1.26-2.51-3.44-1.46-4.91s3.46-1.71,5.44-.47,2.77,3.53,1.78,5m1-5.15a1.23,1.23,0,0,0-2,0c-.1.2-1.19-.47-1.09-.66a1.23,1.23,0,0,0-.79-1.8l.1-.31s1.28,0,1.58.87c0,0,1.08-1.14,1.39-1s-.4,1.62-.4,1.62c1-.2,1.49,1,1.49,1Zm1.5-15.74a4,4,0,0,1-2.82,1.05,9.42,9.42,0,0,1-.44,5.71l-1.58-1.23c2.37-4.73-.94-6.41-.74-9.39-3.37.71-3-1.49-3-1.49a5.57,5.57,0,0,0,3.61.17c-2.24-.2-3.91-1.76-3.82-3.5S94.6,61.27,97,61.35,101.13,63.17,101,65s-2.11,3-4.35,3c1.06.87,3.65.46,3.65.46-.3,1.85-2.45,1.31-3.54.93-.09.63.08,1.29.87,3a7.38,7.38,0,0,1,.4.91,2.92,2.92,0,0,1,1-1.67,4,4,0,0,1,3.06-1.06,3.08,3.08,0,0,1-1,2.59"/><path class="cls-1" d="M534.41,82.87a13,13,0,0,0-13-12.94h-15.7v41.35h17.08a12.92,12.92,0,0,0,9.71-21.6,12.65,12.65,0,0,0,2-6.81m-18.24-3.94h5.19a3.95,3.95,0,1,1,0,7.89h-5.19Zm6.57,23.34h-6.57V94.35h6.57a4,4,0,1,1,0,7.92"/><path class="cls-1" d="M558.33,69.16c-11.52,0-20.89,9.71-20.89,21.62s9.37,21.63,20.89,21.63,20.87-9.68,20.87-21.63-9.36-21.62-20.87-21.62m0,32c-5.32,0-9.65-4.65-9.65-10.39S553,80.4,558.33,80.4,568,85.05,568,90.78s-4.33,10.39-9.64,10.39"/><path class="cls-1" d="M604.9,97.14h4.9v2.27a11.77,11.77,0,0,1-6.17,1.76c-6.09,0-11-4.66-11-10.39s5-10.39,11-10.39a11.45,11.45,0,0,1,7.72,3l1.09,1L620,76.05l-1.08-1a22.55,22.55,0,0,0-15.31-5.9c-12.28,0-22.28,9.71-22.28,21.62s10,21.63,22.28,21.63a22.85,22.85,0,0,0,6.17-.85v.09H621V85.92H604.9Z"/><polygon class="cls-1" points="678.69 82.07 678.69 111.64 692.02 111.64 692.02 82.07 704.6 82.07 704.6 69.35 666.07 69.35 666.07 82.07 678.69 82.07"/><polygon class="cls-1" points="763.61 129.37 738.1 61.55 715.22 61.55 696.48 111.56 710.36 111.56 726.63 70.42 749.74 129.37 763.61 129.37"/><path class="cls-1" d="M662.83,80.58l0,0a20.82,20.82,0,0,0-18.39-11.38c-11.51,0-20.88,9.71-20.88,21.61s9.37,21.63,20.88,21.63,20.88-9.67,20.88-21.63a22.1,22.1,0,0,0-2.47-10.19m-18.41,20.59c-5.31,0-9.64-4.65-9.64-10.4s4.33-10.38,9.64-10.38,9.65,4.67,9.65,10.38-4.33,10.4-9.65,10.4"/><polygon class="cls-1" points="743.94 39.58 756.44 34.46 739.8 28.51 729.15 0 718.1 21 695.54 16.36 711.46 33.6 703.7 54.46 731.71 44.4 752.15 61.56 743.94 39.58"/><polygon class="cls-1" points="697.33 40.71 702.46 37.42 696.32 36.11 694.56 30 692.12 35.21 682.84 33.25 690.1 40.73 687.87 46.79 694.39 42.59 699.44 46.67 697.33 40.71"/><rect class="cls-1" x="464.66" y="20.13" width="2.41" height="131.42"/><rect class="cls-1" x="168.67" y="20.13" width="2.41" height="131.42"/><path class="cls-2" d="M219.17,74h6.23l4.46,16c.51,2,1,5,1,5H231s.56-3,1-5l4.47-16h6.22l2.09,33h-5.25l-1.11-18.36a48.48,48.48,0,0,1,0-5.11h-.14s-.61,3.35-1.12,5.3l-3.53,12.5h-5.53l-3.53-12.5c-.51-1.91-1.07-5.3-1.07-5.3h-.19a48.48,48.48,0,0,1,0,5.11L222.34,107H217Z"/><path class="cls-2" d="M261.73,73.47c8.14,0,13.3,6.92,13.3,16.87s-5.16,17.24-13.3,17.24-13.28-7.16-13.28-17.29C248.45,80.44,253.55,73.47,261.73,73.47Zm0,28.67c4.66,0,7.44-4.69,7.44-11.8s-2.78-11.43-7.44-11.43-7.48,4.45-7.48,11.38C254.25,97.49,257,102.14,261.73,102.14Z"/><path class="cls-2" d="M276.14,74h6.08l5.07,21.47c.42,1.9.79,4.78.79,4.78h.19s.36-2.88.83-4.78L294.17,74h6l-9.11,33h-5.81Z"/><path class="cls-2" d="M303.27,74h5.67v33h-5.67Z"/><path class="cls-2" d="M314.88,74h5.68v28h10.63v5H314.88Z"/><path class="cls-2" d="M334.68,74h5.67v33h-5.67Z"/><path class="cls-2" d="M346.29,74h9.16c8.13,0,13.29,6,13.29,16.45S363.58,107,355.45,107h-9.16ZM355.22,102c4.83,0,7.66-4,7.66-11.48S360,79.09,355.22,79.09H352V102Z"/><path class="cls-2" d="M378.73,74h6.13l8.69,33h-5.67l-2-8.51h-8.09l-2,8.51h-5.67ZM385,93.78l-2.09-8.88c-.46-1.9-1-5.11-1-5.11h-.13s-.51,3.21-.93,5.11l-2.14,8.88Z"/><path class="cls-2" d="M396.71,74h9.15c8.13,0,13.29,6,13.29,16.45S414,107,405.86,107h-9.15ZM405.63,102c4.83,0,7.66-4,7.66-11.48s-2.92-11.39-7.66-11.39h-3.26V102Z"/><path class="cls-2" d="M245.06,59.07a4.54,4.54,0,0,0,3.17,1.55,2.12,2.12,0,0,0,2.25-2.27c0-3.33-6.45-3.25-6.45-8.55,0-2.94,2-5.21,5.45-5.21a7.18,7.18,0,0,1,4.05,1.21l-1.14,2.79a5.16,5.16,0,0,0-2.86-1.06,2.15,2.15,0,0,0-2.35,2.25c0,3.35,6.48,3,6.48,8.44a5,5,0,0,1-5.32,5.32,7.18,7.18,0,0,1-4.75-1.78Z"/><path class="cls-2" d="M256.07,44.9h8.73v2.79h-5.58v4.9h4.5v2.79h-4.5v5.06h5.89v2.79h-9Z"/><path class="cls-2" d="M274.45,44.59a6.78,6.78,0,0,1,4.46,1.52l-1.31,2.71a4.51,4.51,0,0,0-3.05-1.26c-3.18,0-4.91,2.84-4.91,6.35s1.84,6.66,4.86,6.66a5.44,5.44,0,0,0,3.4-1.34l1.3,2.65a7.37,7.37,0,0,1-4.93,1.66c-5,0-7.85-4.08-7.85-9.5S269.39,44.59,274.45,44.59Z"/><path class="cls-2" d="M281.22,44.9h5.32a5.81,5.81,0,0,1,2.4.56,5.19,5.19,0,0,1,2.77,4.88,5.78,5.78,0,0,1-2.69,5v0a7.61,7.61,0,0,1,.54,1l3.05,6.82h-3.46l-2.79-6.84h-2v6.84h-3.15Zm4.83,8.7c1.29,0,2.46-1.11,2.46-3a3,3,0,0,0-1-2.45,2.72,2.72,0,0,0-1.42-.44h-1.73V53.6Z"/><path class="cls-2" d="M294.53,44.9h8.73v2.79h-5.58v4.9h4.49v2.79h-4.49v5.06h5.89v2.79h-9Z"/><path class="cls-2" d="M309,47.69h-4.41V44.9h12v2.79h-4.44V63.23H309Z"/><path class="cls-2" d="M320.48,44.9h3.41l4.83,18.33h-3.15l-1.13-4.73h-4.5l-1.11,4.73h-3.15Zm3.46,11-1.16-4.93c-.26-1.06-.54-2.84-.54-2.84h-.08s-.28,1.78-.51,2.84l-1.19,4.93Z"/><path class="cls-2" d="M330.49,44.9h5.31a5.77,5.77,0,0,1,2.4.56A5.19,5.19,0,0,1,341,50.34a5.76,5.76,0,0,1-2.69,5v0a6.8,6.8,0,0,1,.55,1l3,6.82h-3.46l-2.79-6.84h-2v6.84h-3.15Zm4.82,8.7c1.3,0,2.46-1.11,2.46-3a3,3,0,0,0-1-2.45,2.77,2.77,0,0,0-1.42-.44h-1.73V53.6Z"/><path class="cls-2" d="M343.8,44.9H347V63.23H343.8Zm1.85-4.75h3.1l-2.24,3.53h-2.43Z"/><path class="cls-2" d="M353.5,44.9h3.41l4.82,18.33h-3.15l-1.13-4.73H353l-1.11,4.73H348.7Zm3.46,11-1.16-4.93c-.26-1.06-.55-2.84-.55-2.84h-.07s-.29,1.78-.52,2.84l-1.19,4.93Z"/><path class="cls-2" d="M368,44.9h5.09c4.52,0,7.38,3.35,7.38,9.14s-2.86,9.19-7.38,9.19H368Zm5,15.51c2.69,0,4.26-2.22,4.26-6.37s-1.62-6.33-4.26-6.33h-1.81v12.7Z"/><path class="cls-2" d="M383,44.9h8.72v2.79h-5.57v4.9h4.49v2.79h-4.49v5.06h5.88v2.79h-9Z"/></g></g></svg>