<?xml version="1.0"?>
<svg width="122.4" height="122.4" xmlns="http://www.w3.org/2000/svg" xmlns:svg="http://www.w3.org/2000/svg">
 <defs>
  <style>.cls-1{fill:#fff;}.cls-2{fill:#ab0c28;}</style>
 </defs>
 <g class="layer">
  <title>Layer 1</title>
  <path class="cls-2" d="m61.2,123.4a61.2,61.2 0 1 1 61.2,-61.2a61.27,61.27 0 0 1 -61.2,61.2zm0,-117.4a56.2,56.2 0 1 0 56.2,56.2a56.26,56.26 0 0 0 -56.2,-56.2z" fill="#00ff00" id="svg_2"/>
  <g id="vEBDwz.tif">
   <path class="cls-2" d="m27.42,80.57a18.38,18.38 0 0 1 2.5,-4.89q12.93,-21.45 25.86,-42.9a6.09,6.09 0 0 1 5.42,-3.28a5.65,5.65 0 0 1 5,2.62c1.33,2 2.53,4.11 3.78,6.18l23.92,39.7c1.78,3 1.35,6.14 -1.11,8.2a5.82,5.82 0 0 1 -3.56,1.38l-55.37,0a6.05,6.05 0 0 1 -5.94,-3.69a12.25,12.25 0 0 1 -0.5,-1.48l0,-1.84zm33.77,2.62l27.13,0a5.22,5.22 0 0 0 0.79,0a1.65,1.65 0 0 0 1.29,-2.42a6.74,6.74 0 0 0 -0.36,-0.63q-6.85,-11.4 -13.72,-22.77q-6.69,-11.1 -13.38,-22.18a3.94,3.94 0 0 0 -0.66,-0.9c-0.87,-0.78 -2,-0.46 -2.72,0.75q-13.63,22.61 -27.26,45.21a3.81,3.81 0 0 0 -0.29,0.52a1.64,1.64 0 0 0 1.21,2.37a4.79,4.79 0 0 0 0.85,0l27.12,0.05z" fill="#00ff00" id="svg_3"/>
   <path class="cls-2" d="m63.86,58.31c-0.09,2.72 -0.18,5.45 -0.26,8.17a1.69,1.69 0 0 1 -1.28,1.84a3.2,3.2 0 0 1 -2.32,0a1.58,1.58 0 0 1 -1.17,-1.57q-0.28,-8.17 -0.56,-16.34a2.37,2.37 0 0 1 1.73,-2.63c1.39,-0.48 3.07,-0.14 3.71,0.89a3.47,3.47 0 0 1 0.45,1.74c0,2.63 -0.13,5.27 -0.2,7.9l-0.1,0z" fill="#00ff00" id="svg_4"/>
   <path class="cls-2" d="m58.15,74.54a3.12,3.12 0 0 1 3.1,-3.17a3.14,3.14 0 0 1 0.06,6.28a3.14,3.14 0 0 1 -3.16,-3.11z" fill="#00ff00" id="svg_5"/>
  </g>
 </g>
</svg>