<svg xmlns="http://www.w3.org/2000/svg" viewBox="0 0 39.15 49.13"><defs><style>.cls-1{fill:#fff;}</style></defs><g id="Capa_2" data-name="Capa 2"><g id="Capa_1-2" data-name="Capa 1"><path class="cls-1" d="M27.48,21.63a.22.22,0,0,1-.05-.37,12.09,12.09,0,1,0-15.72,0,.24.24,0,0,1,.08.21.21.21,0,0,1-.13.17A19.64,19.64,0,0,0,0,39.54V42a7.11,7.11,0,0,0,7.09,7.1h25a7.11,7.11,0,0,0,7.1-7.1V39.54A19.63,19.63,0,0,0,27.48,21.63ZM36.15,42a4.11,4.11,0,0,1-4.1,4.1h-25A4.1,4.1,0,0,1,3,42V39.54a16.6,16.6,0,0,1,9.88-15.16,3.23,3.23,0,0,0,.79-5.4,9.09,9.09,0,1,1,11.8,0,3.23,3.23,0,0,0,.8,5.4,16.6,16.6,0,0,1,9.88,15.16Z"/></g></g></svg>