<svg xmlns="http://www.w3.org/2000/svg" viewBox="0 0 93.94 93.95">
	<defs>
		<style>
			.cls-1{fill:#bed200;}
		</style>
	</defs>
	<g id="Capa_2" data-name="Capa 2">
		<g id="Capa_1-2" data-name="Capa 1">
			<path class="cls-1" d="M47,17.26a13.05,13.05,0,1,0,13,13A13.07,13.07,0,0,0,47,17.26Zm0,22.1a9,9,0,1,1,9-9A9.06,9.06,0,0,1,47,39.36Z" />
			<path class="cls-1" d="M93.7,90.45c-.08-.16-.16-.31-.23-.47L80.74,59.16c-.67-1.6-1.29-2-3-2H67.07l.46-.66C72,50,74.66,44.08,76.05,38a31.67,31.67,0,0,0-.74-17.61A29.71,29.71,0,0,0,64,5.38a29.74,29.74,0,0,0-35.84,1.3,29.84,29.84,0,0,0-10,15c-1.88,6.42-1.63,13.05.77,20.27a59.08,59.08,0,0,0,7.89,15.21H16.05a2.68,2.68,0,0,0-2.75,1.74c-1.72,4.2-3.46,8.39-5.19,12.59l-3.59,8.7a2.35,2.35,0,0,0,1.12,3.35c1.05.47,2.44.17,3.19-1.53a8.68,8.68,0,0,0,.37-1,3.59,3.59,0,0,1,.53-1.2,3.39,3.39,0,0,1,1.5-.05c.36,0,.73,0,1.06.06h4.42l-.17.42c-1.24,3-2.48,6-3.75,9-1.56,0-3.12,0-4.68,0H5.84c.24-.57.46-1.12.68-1.67a2.42,2.42,0,0,0-1.17-3.34,2.37,2.37,0,0,0-3.17,1.58Q1.23,88.06.32,90.31C-.34,92,0,92.94,1.56,93.82l.23.13H93.94v-3ZM76.79,67.91c-1.38,0-3,0-4,0a2.47,2.47,0,0,0-1.79.77,2.32,2.32,0,0,0-.59,1.69,2.29,2.29,0,0,0,2.44,2.21c1.54,0,5.43,0,8.21,0h.2a1.23,1.23,0,0,1,.08.18c.27.76.58,1.5.9,2.28H56.39a2.39,2.39,0,0,0-1.64,4.33L66,89.25c-1.52,0-3.05,0-4.57,0a.87.87,0,0,1-.49-.17q-6.78-5.75-13.56-11.52a3.76,3.76,0,0,0,1.54-.9c.59-.5,1.17-1,1.76-1.53.82-.73,1.65-1.46,2.49-2.16a1.46,1.46,0,0,1,.8-.3c3.3,0,4.46,0,6.62,0h3.06a5.82,5.82,0,0,0,1-.05,2.31,2.31,0,0,0,.27-4.51,5.45,5.45,0,0,0-1.32-.14H58.25l5.28-6c4.43,0,8.87,0,13.22,0,.81,1.9,1.6,3.81,2.41,5.78l.11.27ZM71,38.75c-2,7.11-5.9,13.91-12.14,21.41a102.62,102.62,0,0,1-11.6,11.76l-.37.32q-1-1-2-1.89c-2-1.88-3.82-3.65-5.64-5.53A74.6,74.6,0,0,1,26.75,48a40.07,40.07,0,0,1-5-15.11,25.19,25.19,0,0,1,4.46-17.35A24.67,24.67,0,0,1,41.58,5.3a25.94,25.94,0,0,1,5.61-.63A24,24,0,0,1,59.25,7.94,25,25,0,0,1,71.69,24.88,27.48,27.48,0,0,1,71,38.75ZM24,62.11c-.53,1.31-1.05,2.57-1.58,3.83-.11.26-.2.56-.3.85a3.41,3.41,0,0,1-.5,1.14,3.56,3.56,0,0,1-1.25,0c-.3,0-.61,0-.89,0h0c-1.56,0-3.12,0-4.69,0h-.13l.95-2.3c.51-1.24,1-2.47,1.54-3.69a.08.08,0,0,0,0,0c2.2,0,4.4,0,6.67,0h.29ZM19.65,72.62h2.94c1.76,0,2.32-.38,3-2l.83-2c.9-2.17,1.8-4.35,2.68-6.54a.73.73,0,0,1,.09-.19.62.62,0,0,1,.28,0A1.59,1.59,0,0,1,31,62.6q1.54,1.9,3.21,3.74L34,66.13a2.67,2.67,0,0,0-2.36-.71,2.64,2.64,0,0,0-1.73,1.7c-.48,1.13-.95,2.26-1.41,3.4l-2.07,5Q23.62,82.29,20.87,89a2.15,2.15,0,0,0-.11.25h-.2c-.57,0-1.12,0-1.68,0h-1Q20,84.16,22.07,79.09a3.23,3.23,0,0,0,.1-3,3.14,3.14,0,0,0-2.74-1H11.69c.34-.84.67-1.64,1-2.43h.09C15.09,72.62,17.37,72.61,19.65,72.62ZM53.86,89.21h-28l7.28-17.64Zm8.45-9.44H84.18c1,2.56,2.09,5.11,3.14,7.66l.76,1.83H73.25a.38.38,0,0,1-.15,0Q67.7,84.5,62.31,79.77Z" />
		</g>
	</g>
</svg>
